<svg width="33" height="83" viewBox="0 0 33 83" fill="none" xmlns="http://www.w3.org/2000/svg">
<path d="M0 0.649902H33V82.6499L16.5 72.6499L0 82.6499V0.649902Z" fill="#0EB1F2"/>
<path d="M16.0032 43.0833C15.8864 43.0826 15.7718 43.1146 15.6722 43.1757C15.5727 43.2369 15.4923 43.3247 15.4401 43.4292L13.2933 47.7228L8.19563 48.5073C8.08152 48.5249 7.97453 48.5738 7.88652 48.6486C7.7985 48.7233 7.73291 48.8209 7.69701 48.9307C7.6611 49.0404 7.65629 49.1579 7.68311 49.2702C7.70993 49.3825 7.76733 49.4852 7.84895 49.5669L11.3751 53.0931L10.5898 58.1964C10.5723 58.3106 10.5867 58.4274 10.6315 58.5339C10.6763 58.6404 10.7497 58.7324 10.8436 58.7996C10.9375 58.8669 11.0483 58.9069 11.1635 58.915C11.2787 58.9232 11.394 58.8992 11.4964 58.8459L15.9992 56.4964L20.5019 58.8459C20.6044 58.8992 20.7196 58.9232 20.8349 58.915C20.9501 58.9069 21.0608 58.8669 21.1547 58.7996C21.2486 58.7324 21.3221 58.6404 21.3669 58.5339C21.4117 58.4274 21.4261 58.3106 21.4085 58.1964L20.6232 53.0931L24.1494 49.5669C24.231 49.4852 24.2884 49.3825 24.3152 49.2702C24.3421 49.1579 24.3372 49.0404 24.3013 48.9307C24.2654 48.8209 24.1998 48.7233 24.1118 48.6486C24.0238 48.5738 23.9168 48.5249 23.8027 48.5073L18.7051 47.7228L16.5583 43.4292C16.5067 43.3259 16.4276 43.2389 16.3296 43.1779C16.2316 43.1168 16.1187 43.0841 16.0032 43.0833Z" fill="white"/>
</svg>
