<svg width="169" height="41" viewBox="0 0 169 41" fill="none" xmlns="http://www.w3.org/2000/svg">
<path d="M47.8204 25.8347C48.4424 25.8347 49.0821 26.1191 49.7397 26.7055C51.1613 27.9495 52.814 28.5714 54.6977 28.5714C56.4926 28.5714 58.1097 28.0028 59.5491 26.8654C60.9886 25.7281 61.9482 24.2887 62.4102 22.5649H53.9336C53.4182 22.5649 52.9562 22.3694 52.5119 21.9962C52.0676 21.623 51.8544 21.1432 51.8544 20.5746C51.8544 20.0059 52.0499 19.5083 52.4586 19.1351C52.8496 18.7442 53.3471 18.5487 53.9513 18.5487H62.4991C62.0548 16.7538 61.113 15.2789 59.6735 14.106C58.2341 12.9509 56.5814 12.3645 54.7155 12.3645C53.0273 12.3645 51.499 12.862 50.1306 13.8572C49.6153 14.2837 49.1177 14.497 48.6379 14.497C48.087 14.497 47.5894 14.2837 47.1807 13.8572C46.7542 13.4307 46.5409 12.9509 46.5409 12.4178C46.5409 11.8136 46.7542 11.3515 47.1807 10.9961C49.1888 9.21902 51.73 8.33048 54.751 8.33048C58.1453 8.33048 61.0064 9.50336 63.3521 11.8491C64.4539 12.9331 65.3069 14.2304 65.8933 15.7587C66.4798 17.2692 66.7819 18.8508 66.7819 20.4857C66.7819 23.9688 65.6268 26.8477 63.3343 29.1579C61.0064 31.4858 58.1453 32.641 54.7688 32.641C53.1694 32.641 51.6411 32.3388 50.1484 31.7346C48.6556 31.1304 47.3761 30.2597 46.2566 29.1223C45.9722 28.838 45.8301 28.447 45.8301 27.9672C45.8301 27.4163 46.0433 26.9187 46.4698 26.51C46.843 26.048 47.3051 25.8347 47.8204 25.8347ZM91.1456 9.32565C91.5011 8.70367 92.0164 8.36602 92.7095 8.29494C93.3492 8.29494 93.8823 8.49042 94.3266 8.86361C94.7531 9.23679 94.9664 9.71661 94.9664 10.2853V30.7572C94.9664 31.3081 94.7709 31.7524 94.3799 32.0723C93.989 32.3922 93.4914 32.5521 92.905 32.5521C92.3363 32.5521 91.8565 32.3922 91.4833 32.0901C91.1101 31.788 90.9146 31.3437 90.8791 30.7928V17.3936L84.7659 26.9365C84.6593 27.1498 84.4283 27.4163 84.0906 27.6829C83.753 27.9672 83.3443 28.0916 82.8822 28.0916C82.1714 28.0916 81.5672 27.7184 81.0874 26.9898L74.9387 17.3936V30.8106C74.9209 31.3437 74.7076 31.7702 74.3167 32.0723C73.9257 32.3744 73.4637 32.5343 72.9128 32.5343C72.3619 32.5343 71.8821 32.3744 71.4911 32.0367C71.1002 31.6991 70.8869 31.2904 70.8869 30.775V10.3386C70.8869 9.78769 71.0646 9.30788 71.4378 8.89915C71.811 8.49042 72.2908 8.27717 72.8773 8.27717C73.6592 8.27717 74.2811 8.66813 74.7787 9.43227L82.8822 22.5649L91.1456 9.32565ZM117.304 8.45488C117.837 8.45488 118.264 8.63259 118.602 8.988C118.939 9.34342 119.099 9.78769 119.099 10.3208V30.8461C119.099 31.2726 118.904 31.6636 118.53 32.0012C118.157 32.3566 117.66 32.5343 117.038 32.5343C116.416 32.5343 115.918 32.3566 115.563 32.019C115.19 31.6813 115.012 31.2904 115.012 30.8461V12.5777H104.882V30.8461C104.882 31.3081 104.687 31.7169 104.314 32.0367C103.941 32.3744 103.443 32.5343 102.821 32.5343C102.252 32.5343 101.755 32.3744 101.364 32.0723C100.973 31.7702 100.76 31.3615 100.76 30.8461V10.3208C100.76 9.841 100.955 9.39673 101.346 9.02354C101.737 8.65036 102.164 8.45488 102.661 8.45488H117.304ZM143.09 9.1124C143.463 9.45004 143.658 9.91208 143.658 10.5163V30.3485C143.658 30.9172 143.463 31.4148 143.072 31.7879C142.681 32.1789 142.201 32.3744 141.633 32.3744C141.028 32.3744 140.549 32.1789 140.175 31.8057C139.802 31.4325 139.607 30.9349 139.607 30.3485V16.5228L128.66 31.5747C128.375 31.9657 127.985 32.2322 127.505 32.3388C127.025 32.4455 126.563 32.3922 126.119 32.1789C125.745 32.0012 125.426 31.7346 125.195 31.3615C124.946 30.9883 124.821 30.6151 124.821 30.2063V10.2142C124.821 9.66329 124.999 9.23679 125.372 8.91692C125.745 8.61482 126.261 8.45488 126.918 8.45488C127.487 8.45488 127.967 8.61481 128.322 8.93469C128.695 9.25456 128.873 9.68106 128.873 10.2142V24.2709L139.767 9.34342C140.122 8.81029 140.637 8.52596 141.313 8.47265C142.023 8.43711 142.61 8.65036 143.09 9.1124ZM160.061 28.5537C161.891 28.5537 163.544 27.9317 165.019 26.6877C165.588 26.1191 166.227 25.817 166.92 25.817C167.436 25.817 167.898 26.0302 168.342 26.4389C168.786 26.8477 169 27.3275 169 27.8784C169 28.3582 168.84 28.7669 168.538 29.069C166.192 31.4148 163.348 32.5876 160.025 32.5876C156.702 32.5876 153.859 31.4148 151.513 29.069C149.185 26.7944 148.03 23.9155 148.03 20.4324C148.03 18.8153 148.332 17.2514 148.919 15.7409C149.523 14.2304 150.376 12.9331 151.478 11.8136C153.841 9.45004 156.702 8.2594 160.025 8.2594C163.082 8.2594 165.605 9.14794 167.56 10.925C168.004 11.316 168.218 11.8136 168.218 12.4178C168.218 12.9331 168.022 13.3952 167.631 13.8217C167.24 14.2482 166.778 14.4614 166.245 14.4614C165.765 14.4614 165.214 14.2659 164.61 13.8927C162.975 12.8443 161.447 12.3289 160.025 12.3289C157.839 12.3289 155.956 13.1286 154.41 14.728C152.864 16.3273 152.082 18.2111 152.082 20.4146C152.082 22.636 152.864 24.5375 154.41 26.1546C156.009 27.754 157.875 28.5537 160.061 28.5537Z" fill="#0A2540"/>
<path d="M17.416 23.3829L40.5181 0.813965L27.3677 40.4429L17.416 23.3829Z" fill="#0097D1"/>
<path d="M17.5931 23.5605L40.5174 0.991577L0 13.0757L17.5931 23.5605Z" fill="#0EB1F2"/>
<path d="M5.33008 35.4669L15.2817 25.5153L20.0799 33.8675L5.33008 35.4669Z" fill="#0097D1"/>
<path d="M5.50977 35.467L15.2837 25.6931L7.10914 20.5396L5.50977 35.467Z" fill="#0EB1F2"/>
</svg>
