<svg width="68" height="66" viewBox="0 0 68 66" fill="none" xmlns="http://www.w3.org/2000/svg">
<path d="M9.14844 23.016C9.14844 14.9597 9.14844 10.9315 10.7163 7.85435C12.0954 5.14764 14.2961 2.94701 17.0028 1.56787C20.0799 0 24.1081 0 32.1644 0H44.9802C53.0365 0 57.0647 0 60.1418 1.56787C62.8486 2.94701 65.0492 5.14764 66.4283 7.85435C67.9962 10.9315 67.9962 14.9597 67.9962 23.016V35.8317C67.9962 43.8881 67.9962 47.9163 66.4283 50.9934C65.0492 53.7001 62.8486 55.9007 60.1418 57.2799C57.0647 58.8478 53.0365 58.8478 44.9802 58.8478H32.1644C24.1081 58.8478 20.0799 58.8478 17.0028 57.2799C14.2961 55.9007 12.0954 53.7001 10.7163 50.9934C9.14844 47.9163 9.14844 43.8881 9.14844 35.8317V23.016Z" fill="#0EB1F2"/>
<g filter="url(#filter0_biiii_38_3370)">
<path d="M0 30.016C0 21.9597 0 17.9315 1.56787 14.8544C2.94701 12.1476 5.14764 9.94701 7.85435 8.56787C10.9315 7 14.9597 7 23.016 7H35.8317C43.8881 7 47.9163 7 50.9934 8.56787C53.7001 9.94701 55.9007 12.1476 57.2799 14.8544C58.8478 17.9315 58.8478 21.9597 58.8478 30.016V42.8317C58.8478 50.8881 58.8478 54.9163 57.2799 57.9934C55.9007 60.7001 53.7001 62.9007 50.9934 64.2799C47.9163 65.8478 43.8881 65.8478 35.8317 65.8478H23.016C14.9597 65.8478 10.9315 65.8478 7.85435 64.2799C5.14764 62.9007 2.94701 60.7001 1.56787 57.9934C0 54.9163 0 50.8881 0 42.8317V30.016Z" fill="#CDDEF7" fill-opacity="0.62"/>
</g>
<g filter="url(#filter1_ii_38_3370)">
<path d="M28.5834 21C23.8458 21 19.6095 23.2146 16.8646 26.6543C16.7197 26.8243 16.6104 27.0218 16.5432 27.2349C16.4761 27.448 16.4524 27.6724 16.4738 27.8949C16.4951 28.1173 16.5609 28.3331 16.6673 28.5296C16.7738 28.7261 16.9186 28.8992 17.0932 29.0385C17.2679 29.1779 17.4687 29.2808 17.6839 29.341C17.8991 29.4012 18.1242 29.4175 18.3458 29.389C18.5674 29.3604 18.781 29.2876 18.974 29.1749C19.1669 29.0622 19.3352 28.9118 19.4688 28.7327C21.609 26.0508 24.881 24.3333 28.5834 24.3333C34.4843 24.3333 39.3218 28.6746 40.1215 34.348L39.3451 33.5716C39.1896 33.4118 39.0036 33.2847 38.7981 33.1981C38.5926 33.1114 38.3718 33.0669 38.1488 33.0671C37.8174 33.0675 37.4936 33.1667 37.2189 33.352C36.9441 33.5373 36.7308 33.8003 36.6063 34.1074C36.4817 34.4145 36.4515 34.7518 36.5196 35.0762C36.5876 35.4005 36.7508 35.6972 36.9883 35.9284L40.7383 39.6784C41.0509 39.9908 41.4748 40.1663 41.9167 40.1663C42.3587 40.1663 42.7825 39.9908 43.0951 39.6784L46.8451 35.9284C47.0051 35.7748 47.1328 35.5909 47.2207 35.3873C47.3087 35.1838 47.3552 34.9647 47.3575 34.743C47.3597 34.5212 47.3177 34.3013 47.2339 34.096C47.1501 33.8907 47.0261 33.7042 46.8693 33.5474C46.7125 33.3906 46.526 33.2666 46.3207 33.1828C46.1154 33.099 45.8955 33.057 45.6737 33.0593C45.452 33.0615 45.233 33.108 45.0294 33.196C44.8259 33.284 44.6419 33.4117 44.4883 33.5716L43.5101 34.5498C42.7766 26.9623 36.3586 21 28.5834 21ZM16.059 31.8333C15.6255 31.8398 15.2115 32.015 14.905 32.3216L11.155 36.0716C10.995 36.2252 10.8673 36.4091 10.7794 36.6127C10.6914 36.8162 10.6449 37.0353 10.6427 37.257C10.6404 37.4788 10.6824 37.6987 10.7662 37.904C10.85 38.1093 10.974 38.2958 11.1308 38.4526C11.2876 38.6094 11.4741 38.7333 11.6794 38.8172C11.8847 38.901 12.1046 38.943 12.3264 38.9407C12.5481 38.9385 12.7672 38.892 12.9707 38.804C13.1743 38.716 13.3582 38.5883 13.5118 38.4284L14.4932 37.4469C15.2485 45.0122 21.6575 50.9495 29.4167 50.9495C34.1405 50.9495 38.3676 48.7483 41.1127 45.3262C41.2526 45.1557 41.3574 44.9592 41.4208 44.748C41.4843 44.5368 41.5052 44.3151 41.4823 44.0957C41.4595 43.8764 41.3933 43.6637 41.2877 43.4701C41.1821 43.2765 41.0391 43.1058 40.867 42.9679C40.6949 42.8299 40.4972 42.7275 40.2853 42.6666C40.0733 42.6056 39.8514 42.5873 39.6323 42.6127C39.4133 42.6381 39.2014 42.7068 39.0091 42.8147C38.8167 42.9225 38.6477 43.0675 38.5118 43.2412C36.3718 45.909 33.1079 47.6162 29.4167 47.6162C23.5368 47.6162 18.7139 43.3055 17.8884 37.6618L18.655 38.4284C18.8086 38.5883 18.9925 38.716 19.1961 38.804C19.3996 38.892 19.6187 38.9385 19.8404 38.9407C20.0622 38.943 20.2821 38.901 20.4874 38.8172C20.6927 38.7334 20.8792 38.6094 21.036 38.4526C21.1928 38.2958 21.3167 38.1093 21.4006 37.904C21.4844 37.6987 21.5264 37.4788 21.5241 37.257C21.5219 37.0353 21.4754 36.8162 21.3874 36.6127C21.2994 36.4091 21.1717 36.2252 21.0118 36.0716L17.2618 32.3216C17.1041 32.1639 16.9165 32.0394 16.7099 31.9556C16.5033 31.8717 16.2819 31.8301 16.059 31.8333Z" fill="#EDF2FA"/>
</g>
<defs>
<filter id="filter0_biiii_38_3370" x="-6" y="1" width="70.8477" height="70.8478" filterUnits="userSpaceOnUse" color-interpolation-filters="sRGB">
<feFlood flood-opacity="0" result="BackgroundImageFix"/>
<feGaussianBlur in="BackgroundImageFix" stdDeviation="3"/>
<feComposite in2="SourceAlpha" operator="in" result="effect1_backgroundBlur_38_3370"/>
<feBlend mode="normal" in="SourceGraphic" in2="effect1_backgroundBlur_38_3370" result="shape"/>
<feColorMatrix in="SourceAlpha" type="matrix" values="0 0 0 0 0 0 0 0 0 0 0 0 0 0 0 0 0 0 127 0" result="hardAlpha"/>
<feOffset dx="2" dy="1"/>
<feGaussianBlur stdDeviation="2"/>
<feComposite in2="hardAlpha" operator="arithmetic" k2="-1" k3="1"/>
<feColorMatrix type="matrix" values="0 0 0 0 0.673681 0 0 0 0 0.768659 0 0 0 0 0.908333 0 0 0 0.51 0"/>
<feBlend mode="normal" in2="shape" result="effect2_innerShadow_38_3370"/>
<feColorMatrix in="SourceAlpha" type="matrix" values="0 0 0 0 0 0 0 0 0 0 0 0 0 0 0 0 0 0 127 0" result="hardAlpha"/>
<feOffset dx="-1" dy="1"/>
<feGaussianBlur stdDeviation="0.5"/>
<feComposite in2="hardAlpha" operator="arithmetic" k2="-1" k3="1"/>
<feColorMatrix type="matrix" values="0 0 0 0 1 0 0 0 0 1 0 0 0 0 1 0 0 0 0.51 0"/>
<feBlend mode="normal" in2="effect2_innerShadow_38_3370" result="effect3_innerShadow_38_3370"/>
<feColorMatrix in="SourceAlpha" type="matrix" values="0 0 0 0 0 0 0 0 0 0 0 0 0 0 0 0 0 0 127 0" result="hardAlpha"/>
<feOffset dx="2" dy="-1"/>
<feGaussianBlur stdDeviation="0.5"/>
<feComposite in2="hardAlpha" operator="arithmetic" k2="-1" k3="1"/>
<feColorMatrix type="matrix" values="0 0 0 0 1 0 0 0 0 1 0 0 0 0 1 0 0 0 0.6 0"/>
<feBlend mode="normal" in2="effect3_innerShadow_38_3370" result="effect4_innerShadow_38_3370"/>
<feColorMatrix in="SourceAlpha" type="matrix" values="0 0 0 0 0 0 0 0 0 0 0 0 0 0 0 0 0 0 127 0" result="hardAlpha"/>
<feOffset dx="-1" dy="-1"/>
<feGaussianBlur stdDeviation="1"/>
<feComposite in2="hardAlpha" operator="arithmetic" k2="-1" k3="1"/>
<feColorMatrix type="matrix" values="0 0 0 0 0.673681 0 0 0 0 0.768659 0 0 0 0 0.908333 0 0 0 0.51 0"/>
<feBlend mode="normal" in2="effect4_innerShadow_38_3370" result="effect5_innerShadow_38_3370"/>
</filter>
<filter id="filter1_ii_38_3370" x="10.1426" y="20.5" width="37.7148" height="30.9496" filterUnits="userSpaceOnUse" color-interpolation-filters="sRGB">
<feFlood flood-opacity="0" result="BackgroundImageFix"/>
<feBlend mode="normal" in="SourceGraphic" in2="BackgroundImageFix" result="shape"/>
<feColorMatrix in="SourceAlpha" type="matrix" values="0 0 0 0 0 0 0 0 0 0 0 0 0 0 0 0 0 0 127 0" result="hardAlpha"/>
<feOffset dx="-0.5" dy="0.5"/>
<feGaussianBlur stdDeviation="0.25"/>
<feComposite in2="hardAlpha" operator="arithmetic" k2="-1" k3="1"/>
<feColorMatrix type="matrix" values="0 0 0 0 1 0 0 0 0 1 0 0 0 0 1 0 0 0 1 0"/>
<feBlend mode="normal" in2="shape" result="effect1_innerShadow_38_3370"/>
<feColorMatrix in="SourceAlpha" type="matrix" values="0 0 0 0 0 0 0 0 0 0 0 0 0 0 0 0 0 0 127 0" result="hardAlpha"/>
<feOffset dx="0.5" dy="-0.5"/>
<feGaussianBlur stdDeviation="0.25"/>
<feComposite in2="hardAlpha" operator="arithmetic" k2="-1" k3="1"/>
<feColorMatrix type="matrix" values="0 0 0 0 0.25098 0 0 0 0 0.301961 0 0 0 0 0.388235 0 0 0 0.05 0"/>
<feBlend mode="normal" in2="effect1_innerShadow_38_3370" result="effect2_innerShadow_38_3370"/>
</filter>
</defs>
</svg>
