<svg width="68" height="66" viewBox="0 0 68 66" fill="none" xmlns="http://www.w3.org/2000/svg">
<path d="M9.14844 23.016C9.14844 14.9597 9.14844 10.9315 10.7163 7.85435C12.0954 5.14764 14.2961 2.94701 17.0028 1.56787C20.0799 0 24.1081 0 32.1644 0H44.9802C53.0365 0 57.0647 0 60.1418 1.56787C62.8486 2.94701 65.0492 5.14764 66.4283 7.85435C67.9962 10.9315 67.9962 14.9597 67.9962 23.016V35.8317C67.9962 43.8881 67.9962 47.9163 66.4283 50.9934C65.0492 53.7001 62.8486 55.9007 60.1418 57.2799C57.0647 58.8478 53.0365 58.8478 44.9802 58.8478H32.1644C24.1081 58.8478 20.0799 58.8478 17.0028 57.2799C14.2961 55.9007 12.0954 53.7001 10.7163 50.9934C9.14844 47.9163 9.14844 43.8881 9.14844 35.8317V23.016Z" fill="#0EB1F2"/>
<path d="M9.14844 23.016C9.14844 14.9597 9.14844 10.9315 10.7163 7.85435C12.0954 5.14764 14.2961 2.94701 17.0028 1.56787C20.0799 0 24.1081 0 32.1644 0H44.9802C53.0365 0 57.0647 0 60.1418 1.56787C62.8486 2.94701 65.0492 5.14764 66.4283 7.85435C67.9962 10.9315 67.9962 14.9597 67.9962 23.016V35.8317C67.9962 43.8881 67.9962 47.9163 66.4283 50.9934C65.0492 53.7001 62.8486 55.9007 60.1418 57.2799C57.0647 58.8478 53.0365 58.8478 44.9802 58.8478H32.1644C24.1081 58.8478 20.0799 58.8478 17.0028 57.2799C14.2961 55.9007 12.0954 53.7001 10.7163 50.9934C9.14844 47.9163 9.14844 43.8881 9.14844 35.8317V23.016Z" fill="url(#paint0_linear_103_351)"/>
<g filter="url(#filter0_biiii_103_351)">
<path d="M0 30.016C0 21.9597 0 17.9315 1.56787 14.8544C2.94701 12.1476 5.14764 9.94701 7.85435 8.56787C10.9315 7 14.9597 7 23.016 7H35.8317C43.8881 7 47.9163 7 50.9934 8.56787C53.7001 9.94701 55.9007 12.1476 57.2799 14.8544C58.8478 17.9315 58.8478 21.9597 58.8478 30.016V42.8317C58.8478 50.8881 58.8478 54.9163 57.2799 57.9934C55.9007 60.7001 53.7001 62.9007 50.9934 64.2799C47.9163 65.8478 43.8881 65.8478 35.8317 65.8478H23.016C14.9597 65.8478 10.9315 65.8478 7.85435 64.2799C5.14764 62.9007 2.94701 60.7001 1.56787 57.9934C0 54.9163 0 50.8881 0 42.8317V30.016Z" fill="#CDDEF7" fill-opacity="0.62"/>
</g>
<g clip-path="url(#clip0_103_351)">
<g filter="url(#filter1_ii_103_351)">
<path d="M40.4922 30.0525L42.9318 25.9846L39.0154 22.0682L34.9473 24.5078C34.3006 24.1724 33.6215 23.8923 32.9211 23.6694L31.7693 19H26.2307L25.0789 23.6694C24.3785 23.8923 23.6994 24.1724 23.0525 24.5078L18.9846 22.0682L15.0682 25.9846L17.5078 30.0527C17.1724 30.6994 16.8923 31.3785 16.6694 32.0789L12 33.2307V38.7693L16.6694 39.9211C16.8923 40.6215 17.1724 41.3006 17.5078 41.9475L15.0682 46.0154L18.9846 49.9318L23.0527 47.4922C23.6994 47.8278 24.3785 48.1077 25.0789 48.3306L26.2307 53H31.7693L32.9211 48.3306C33.6215 48.1077 34.3006 47.8276 34.9475 47.4922L39.0154 49.9318L42.9318 46.0154L40.4922 41.9473C40.8278 41.3006 41.1077 40.6215 41.3306 39.9211L46 38.7693V33.2307L41.3306 32.0789C41.1077 31.3785 40.8276 30.6994 40.4922 30.0525ZM29 44.9648C24.0566 44.9648 20.0352 40.9434 20.0352 36C20.0352 31.0566 24.0566 27.0352 29 27.0352C33.9434 27.0352 37.9648 31.0566 37.9648 36C37.9648 40.9434 33.9434 44.9648 29 44.9648Z" fill="white"/>
</g>
<g filter="url(#filter2_ii_103_351)">
<path d="M31.9883 34.0078C31.9883 32.3601 30.6477 31.0195 29 31.0195C27.3523 31.0195 26.0117 32.3601 26.0117 34.0078C26.0117 35.6555 27.3523 36.9961 29 36.9961C30.6477 36.9961 31.9883 35.6555 31.9883 34.0078Z" fill="white"/>
</g>
<g filter="url(#filter3_ii_103_351)">
<path d="M29 36.9961C26.6094 36.9961 24.5972 38.6895 24.1191 40.9605C25.3741 42.2157 27.1074 42.9727 29 42.9727C30.8926 42.9727 32.6259 42.2157 33.8809 40.9605C33.4132 38.6692 31.3844 36.9961 29 36.9961Z" fill="white"/>
</g>
</g>
<defs>
<filter id="filter0_biiii_103_351" x="-6" y="1" width="70.8477" height="70.8478" filterUnits="userSpaceOnUse" color-interpolation-filters="sRGB">
<feFlood flood-opacity="0" result="BackgroundImageFix"/>
<feGaussianBlur in="BackgroundImageFix" stdDeviation="3"/>
<feComposite in2="SourceAlpha" operator="in" result="effect1_backgroundBlur_103_351"/>
<feBlend mode="normal" in="SourceGraphic" in2="effect1_backgroundBlur_103_351" result="shape"/>
<feColorMatrix in="SourceAlpha" type="matrix" values="0 0 0 0 0 0 0 0 0 0 0 0 0 0 0 0 0 0 127 0" result="hardAlpha"/>
<feOffset dx="2" dy="1"/>
<feGaussianBlur stdDeviation="2"/>
<feComposite in2="hardAlpha" operator="arithmetic" k2="-1" k3="1"/>
<feColorMatrix type="matrix" values="0 0 0 0 0.673681 0 0 0 0 0.768659 0 0 0 0 0.908333 0 0 0 0.51 0"/>
<feBlend mode="normal" in2="shape" result="effect2_innerShadow_103_351"/>
<feColorMatrix in="SourceAlpha" type="matrix" values="0 0 0 0 0 0 0 0 0 0 0 0 0 0 0 0 0 0 127 0" result="hardAlpha"/>
<feOffset dx="-1" dy="1"/>
<feGaussianBlur stdDeviation="0.5"/>
<feComposite in2="hardAlpha" operator="arithmetic" k2="-1" k3="1"/>
<feColorMatrix type="matrix" values="0 0 0 0 1 0 0 0 0 1 0 0 0 0 1 0 0 0 0.51 0"/>
<feBlend mode="normal" in2="effect2_innerShadow_103_351" result="effect3_innerShadow_103_351"/>
<feColorMatrix in="SourceAlpha" type="matrix" values="0 0 0 0 0 0 0 0 0 0 0 0 0 0 0 0 0 0 127 0" result="hardAlpha"/>
<feOffset dx="2" dy="-1"/>
<feGaussianBlur stdDeviation="0.5"/>
<feComposite in2="hardAlpha" operator="arithmetic" k2="-1" k3="1"/>
<feColorMatrix type="matrix" values="0 0 0 0 1 0 0 0 0 1 0 0 0 0 1 0 0 0 0.6 0"/>
<feBlend mode="normal" in2="effect3_innerShadow_103_351" result="effect4_innerShadow_103_351"/>
<feColorMatrix in="SourceAlpha" type="matrix" values="0 0 0 0 0 0 0 0 0 0 0 0 0 0 0 0 0 0 127 0" result="hardAlpha"/>
<feOffset dx="-1" dy="-1"/>
<feGaussianBlur stdDeviation="1"/>
<feComposite in2="hardAlpha" operator="arithmetic" k2="-1" k3="1"/>
<feColorMatrix type="matrix" values="0 0 0 0 0.673681 0 0 0 0 0.768659 0 0 0 0 0.908333 0 0 0 0.51 0"/>
<feBlend mode="normal" in2="effect4_innerShadow_103_351" result="effect5_innerShadow_103_351"/>
</filter>
<filter id="filter1_ii_103_351" x="11.5" y="18.5" width="35" height="35" filterUnits="userSpaceOnUse" color-interpolation-filters="sRGB">
<feFlood flood-opacity="0" result="BackgroundImageFix"/>
<feBlend mode="normal" in="SourceGraphic" in2="BackgroundImageFix" result="shape"/>
<feColorMatrix in="SourceAlpha" type="matrix" values="0 0 0 0 0 0 0 0 0 0 0 0 0 0 0 0 0 0 127 0" result="hardAlpha"/>
<feOffset dx="-0.5" dy="0.5"/>
<feGaussianBlur stdDeviation="0.25"/>
<feComposite in2="hardAlpha" operator="arithmetic" k2="-1" k3="1"/>
<feColorMatrix type="matrix" values="0 0 0 0 1 0 0 0 0 1 0 0 0 0 1 0 0 0 1 0"/>
<feBlend mode="normal" in2="shape" result="effect1_innerShadow_103_351"/>
<feColorMatrix in="SourceAlpha" type="matrix" values="0 0 0 0 0 0 0 0 0 0 0 0 0 0 0 0 0 0 127 0" result="hardAlpha"/>
<feOffset dx="0.5" dy="-0.5"/>
<feGaussianBlur stdDeviation="0.25"/>
<feComposite in2="hardAlpha" operator="arithmetic" k2="-1" k3="1"/>
<feColorMatrix type="matrix" values="0 0 0 0 0.25098 0 0 0 0 0.301961 0 0 0 0 0.388235 0 0 0 0.05 0"/>
<feBlend mode="normal" in2="effect1_innerShadow_103_351" result="effect2_innerShadow_103_351"/>
</filter>
<filter id="filter2_ii_103_351" x="25.5117" y="30.5195" width="6.97656" height="6.97656" filterUnits="userSpaceOnUse" color-interpolation-filters="sRGB">
<feFlood flood-opacity="0" result="BackgroundImageFix"/>
<feBlend mode="normal" in="SourceGraphic" in2="BackgroundImageFix" result="shape"/>
<feColorMatrix in="SourceAlpha" type="matrix" values="0 0 0 0 0 0 0 0 0 0 0 0 0 0 0 0 0 0 127 0" result="hardAlpha"/>
<feOffset dx="-0.5" dy="0.5"/>
<feGaussianBlur stdDeviation="0.25"/>
<feComposite in2="hardAlpha" operator="arithmetic" k2="-1" k3="1"/>
<feColorMatrix type="matrix" values="0 0 0 0 1 0 0 0 0 1 0 0 0 0 1 0 0 0 1 0"/>
<feBlend mode="normal" in2="shape" result="effect1_innerShadow_103_351"/>
<feColorMatrix in="SourceAlpha" type="matrix" values="0 0 0 0 0 0 0 0 0 0 0 0 0 0 0 0 0 0 127 0" result="hardAlpha"/>
<feOffset dx="0.5" dy="-0.5"/>
<feGaussianBlur stdDeviation="0.25"/>
<feComposite in2="hardAlpha" operator="arithmetic" k2="-1" k3="1"/>
<feColorMatrix type="matrix" values="0 0 0 0 0.25098 0 0 0 0 0.301961 0 0 0 0 0.388235 0 0 0 0.05 0"/>
<feBlend mode="normal" in2="effect1_innerShadow_103_351" result="effect2_innerShadow_103_351"/>
</filter>
<filter id="filter3_ii_103_351" x="23.6191" y="36.4961" width="10.7617" height="6.97656" filterUnits="userSpaceOnUse" color-interpolation-filters="sRGB">
<feFlood flood-opacity="0" result="BackgroundImageFix"/>
<feBlend mode="normal" in="SourceGraphic" in2="BackgroundImageFix" result="shape"/>
<feColorMatrix in="SourceAlpha" type="matrix" values="0 0 0 0 0 0 0 0 0 0 0 0 0 0 0 0 0 0 127 0" result="hardAlpha"/>
<feOffset dx="-0.5" dy="0.5"/>
<feGaussianBlur stdDeviation="0.25"/>
<feComposite in2="hardAlpha" operator="arithmetic" k2="-1" k3="1"/>
<feColorMatrix type="matrix" values="0 0 0 0 1 0 0 0 0 1 0 0 0 0 1 0 0 0 1 0"/>
<feBlend mode="normal" in2="shape" result="effect1_innerShadow_103_351"/>
<feColorMatrix in="SourceAlpha" type="matrix" values="0 0 0 0 0 0 0 0 0 0 0 0 0 0 0 0 0 0 127 0" result="hardAlpha"/>
<feOffset dx="0.5" dy="-0.5"/>
<feGaussianBlur stdDeviation="0.25"/>
<feComposite in2="hardAlpha" operator="arithmetic" k2="-1" k3="1"/>
<feColorMatrix type="matrix" values="0 0 0 0 0.25098 0 0 0 0 0.301961 0 0 0 0 0.388235 0 0 0 0.05 0"/>
<feBlend mode="normal" in2="effect1_innerShadow_103_351" result="effect2_innerShadow_103_351"/>
</filter>
<linearGradient id="paint0_linear_103_351" x1="18" y1="49" x2="68" y2="4" gradientUnits="userSpaceOnUse">
<stop offset="0.404659" stop-color="#0EB1F2"/>
<stop offset="0.925645" stop-color="#7EE426"/>
</linearGradient>
<clipPath id="clip0_103_351">
<rect width="34" height="34" fill="white" transform="translate(12 19)"/>
</clipPath>
</defs>
</svg>
