<svg width="20" height="20" viewBox="0 0 20 20" fill="none" xmlns="http://www.w3.org/2000/svg">
<path d="M10.0007 1.66663C8.89558 1.66663 7.83577 2.10561 7.05437 2.88701C6.27297 3.66842 5.83398 4.72822 5.83398 5.83329C5.83398 6.93836 6.27297 7.99817 7.05437 8.77957C7.83577 9.56097 8.89558 9.99996 10.0007 9.99996C11.1057 9.99996 12.1655 9.56097 12.9469 8.77957C13.7283 7.99817 14.1673 6.93836 14.1673 5.83329C14.1673 4.72822 13.7283 3.66842 12.9469 2.88701C12.1655 2.10561 11.1057 1.66663 10.0007 1.66663ZM15.0094 11.6666H4.9919C4.07773 11.6666 3.33398 12.4104 3.33398 13.3245V13.9583C3.33398 15.3383 4.1194 16.5316 5.54523 17.3179C6.73148 17.9729 8.31398 18.3333 10.0007 18.3333C13.2115 18.3333 16.6673 16.9641 16.6673 13.9583V13.3245C16.6673 12.4104 15.9236 11.6666 15.0094 11.6666Z" fill="white"/>
</svg>
