<svg width="12" height="12" viewBox="0 0 12 12" fill="none" xmlns="http://www.w3.org/2000/svg">
<path d="M8.72798 5.99998C8.72798 7.50621 7.50694 8.72725 6.00071 8.72725C4.49448 8.72725 3.27344 7.50621 3.27344 5.99998C3.27344 4.49375 4.49448 3.27271 6.00071 3.27271C7.50694 3.27271 8.72798 4.49375 8.72798 5.99998Z" fill="#2FFF9C"/>
<path fill-rule="evenodd" clip-rule="evenodd" d="M12 6C12 9.31371 9.31371 12 6 12C2.68629 12 0 9.31371 0 6C0 2.68629 2.68629 0 6 0C9.31371 0 12 2.68629 12 6ZM6 8.72727C7.50623 8.72727 8.72727 7.50623 8.72727 6C8.72727 4.49377 7.50623 3.27273 6 3.27273C4.49377 3.27273 3.27273 4.49377 3.27273 6C3.27273 7.50623 4.49377 8.72727 6 8.72727Z" fill="#0CBA67" fill-opacity="0.3"/>
<path d="M8.72727 6C8.72727 7.50623 7.50623 8.72727 6 8.72727C4.49377 8.72727 3.27273 7.50623 3.27273 6C3.27273 4.49377 4.49377 3.27273 6 3.27273C7.50623 3.27273 8.72727 4.49377 8.72727 6Z" fill="#0CBA67" fill-opacity="0.3"/>
</svg>
