<svg width="44" height="44" viewBox="0 0 44 44" fill="none" xmlns="http://www.w3.org/2000/svg">
<circle cx="22" cy="22" r="22" fill="#09F0FF"/>
<g clip-path="url(#clip0_99_981)">
<path fill-rule="evenodd" clip-rule="evenodd" d="M33.8679 29.6725C33.5794 30.4084 32.8127 32.4812 32.2883 33.0056C31.5429 33.7509 30.5186 34 29.4905 34C28.2624 34 26.983 33.6515 25.8455 33.2106C22.5653 31.9392 19.4112 29.5295 16.9401 27.0588C14.4698 24.5889 12.06 21.4333 10.7901 18.1541C10.1003 16.3733 9.44405 13.6588 10.75 11.9882C10.8258 11.8913 10.9074 11.7991 10.9943 11.7121C11.5352 11.1708 13.5994 10.4125 14.3363 10.1286L14.3835 10.1104C14.7277 9.9737 15.1096 9.96554 15.4593 10.0874C15.809 10.2093 16.1031 10.453 16.2878 10.774L18.4741 14.559C18.6776 14.9143 18.7321 15.3358 18.6258 15.7312C18.5194 16.1265 18.2608 16.4638 17.9066 16.669L17.6495 16.8184C16.9921 17.2001 16.5768 17.773 16.4234 18.5179C16.3453 18.8721 16.3461 19.239 16.4255 19.5929C16.5049 19.9468 16.6611 20.2788 16.8831 20.5657C17.8153 21.8033 18.834 22.9734 19.9314 24.0672C21.0259 25.1645 22.1965 26.1831 23.4344 27.1155C23.7211 27.3373 24.053 27.4934 24.4066 27.5728C24.7603 27.6522 25.127 27.653 25.481 27.5752C26.2249 27.4228 26.7965 27.0072 27.1789 26.3523L27.3298 26.0938C27.431 25.9179 27.5658 25.7637 27.7266 25.6399C27.8874 25.5161 28.071 25.4253 28.2669 25.3724C28.4628 25.3196 28.6672 25.306 28.8684 25.3322C29.0696 25.3584 29.2637 25.424 29.4396 25.5252L33.2251 27.7109C33.5473 27.8933 33.7923 28.1864 33.9147 28.5359C34.037 28.8853 34.0284 29.2673 33.8904 29.6109L33.8849 29.6249L33.8679 29.6725Z" fill="#2F3156"/>
</g>
<defs>
<clipPath id="clip0_99_981">
<rect width="24" height="24" fill="white" transform="translate(10 10)"/>
</clipPath>
</defs>
</svg>
