<svg width="60" height="60" viewBox="0 0 60 60" fill="none" xmlns="http://www.w3.org/2000/svg">
<circle cx="30" cy="30" r="30" fill="#27FFB1"/>
<path d="M29.9999 15.2667C24.3332 15.2667 17.5332 19.8001 17.5332 27.7334V32.2667V33.4001C17.5332 35.1189 18.286 36.3428 19.0539 37.0148C19.5222 37.4245 19.7181 37.4309 20.0323 37.5549C20.4441 38.619 23.0763 44.7334 29.9999 44.7334C30.0385 44.7334 30.0744 44.7294 30.1128 44.729C30.1157 44.729 30.1187 44.729 30.1216 44.729C32.7174 44.6993 34.7875 43.7463 36.3727 42.4667H29.9999C23.9554 42.4667 22.009 36.4415 22.009 36.4415L21.812 35.8504L21.2077 35.6999C21.2077 35.6999 20.9112 35.6301 20.5458 35.3103C20.1804 34.9906 19.7999 34.5145 19.7999 33.4001V32.2667H20.9332C20.9332 24.3334 32.2665 30.0001 35.6665 22.0667C35.6665 22.0667 39.0665 25.1947 39.0665 32.2667V35.6667H39.994C39.5298 36.9894 38.29 37.9334 36.7999 37.9334H32.1625C31.9283 37.2746 31.3053 36.8001 30.5665 36.8001H29.4332C28.4948 36.8001 27.7332 37.5617 27.7332 38.5001C27.7332 39.4385 28.4948 40.2001 29.4332 40.2001H30.5665C30.668 40.2001 30.7666 40.1861 30.8632 40.1691C30.9516 40.1902 31.0423 40.2006 31.1332 40.2001H36.7999C39.6234 40.2001 41.9754 38.1037 42.3935 35.3922C43.1084 35.0111 43.5999 34.2672 43.5999 33.4001V32.2667C43.5999 31.4293 43.1416 30.7068 42.4665 30.3144V27.7334C42.4665 23.2001 40.1999 17.5334 35.6665 17.5334C35.6665 17.5334 34.5332 15.2667 29.9999 15.2667Z" fill="black"/>
</svg>
