<svg width="63" height="63" viewBox="0 0 63 63" fill="none" xmlns="http://www.w3.org/2000/svg">
<circle cx="31.5" cy="31.5" r="31.5" fill="white"/>
<g clip-path="url(#clip0_101_192)">
<path d="M32.7492 13C32.3355 13 32 13.3355 32 13.7492V30.2316C32 30.6454 32.3355 30.9808 32.7492 30.9808H49.2316C49.6454 30.9808 49.9808 30.6454 49.9808 30.2316C49.97 20.7193 42.2615 13.0107 32.7492 13Z" fill="#FFC107"/>
<path d="M40.8333 44.7554L30.5019 31.4737V15.2475C30.5019 14.8337 30.1665 14.4983 29.7527 14.4983C21.077 14.4983 14.0195 22.2285 14.0195 31.7298C14.0303 41.2421 21.7388 48.9507 31.2511 48.9614C34.7048 49.2298 38.1199 48.087 40.7165 45.7938C41.0302 45.5364 41.082 45.0761 40.8333 44.7554Z" fill="#2196F3"/>
<path d="M49.233 32.4792H34.249C33.8352 32.4793 33.4999 32.8148 33.5 33.2286C33.5 33.3998 33.5587 33.5657 33.6662 33.6989L43.4058 45.7565C43.5364 45.9186 43.7286 46.019 43.9362 46.0337H43.9887C44.1783 46.0339 44.3609 45.9621 44.4997 45.8329C47.9898 42.569 49.9742 38.0069 49.9823 33.2284C49.9822 32.8147 49.6468 32.4792 49.233 32.4792Z" fill="#4CAF50"/>
</g>
<defs>
<clipPath id="clip0_101_192">
<rect width="36" height="36" fill="white" transform="translate(14 13)"/>
</clipPath>
</defs>
</svg>
