<svg width="44" height="44" viewBox="0 0 44 44" fill="none" xmlns="http://www.w3.org/2000/svg">
<circle cx="22" cy="22" r="22" fill="#6F3DFF"/>
<g clip-path="url(#clip0_101_206)">
<path d="M28.9593 12.375H15.0385C12.8165 12.375 11 14.1929 11 16.4157V31.625L15.125 27.5H28.9601C31.1821 27.5 33 25.6821 33 23.4615V16.4157C32.9993 14.1929 31.1813 12.375 28.9593 12.375ZM16.9965 22C16.2367 22 15.6215 21.384 15.6215 20.625C15.6215 19.866 16.2367 19.25 16.9965 19.25C17.7555 19.25 18.3715 19.866 18.3715 20.625C18.3715 21.384 17.7547 22 16.9965 22ZM21.9985 21.9993C21.2388 21.9993 20.6235 21.3826 20.6235 20.6243C20.6235 19.866 21.2388 19.25 21.9985 19.25C22.7575 19.25 23.3735 19.866 23.3735 20.6243C23.3735 21.3826 22.7575 21.9993 21.9985 21.9993ZM27.0431 22C26.2834 22 25.6681 21.384 25.6681 20.625C25.6681 19.866 26.2834 19.25 27.0431 19.25C27.8021 19.25 28.4181 19.866 28.4181 20.625C28.4181 21.384 27.8021 22 27.0431 22Z" fill="white"/>
</g>
<defs>
<clipPath id="clip0_101_206">
<rect width="22" height="22" fill="white" transform="translate(11 11)"/>
</clipPath>
</defs>
</svg>
