<svg width="44" height="23" viewBox="0 0 44 23" fill="none" xmlns="http://www.w3.org/2000/svg">
<path d="M32.0478 0.485046C31.7617 0.485116 31.4822 0.570537 31.2449 0.73038C31.0076 0.890223 30.8235 1.11722 30.7159 1.38233C30.6084 1.64743 30.5824 1.93859 30.6413 2.21855C30.7002 2.49851 30.8412 2.75454 31.0464 2.95388L38.1759 10.0834H2.35446C2.16397 10.0807 1.97485 10.1159 1.79808 10.1869C1.62132 10.2579 1.46043 10.3634 1.32477 10.4971C1.18912 10.6309 1.0814 10.7903 1.00787 10.966C0.934347 11.1417 0.896484 11.3303 0.896484 11.5209C0.896484 11.7114 0.934347 11.9 1.00787 12.0757C1.0814 12.2515 1.18912 12.4108 1.32477 12.5446C1.46043 12.6783 1.62132 12.7838 1.79808 12.8548C1.97485 12.9259 2.16397 12.961 2.35446 12.9584H38.1759L31.0464 20.0878C30.9085 20.2203 30.7983 20.3789 30.7225 20.5545C30.6466 20.7301 30.6065 20.919 30.6046 21.1102C30.6026 21.3015 30.6388 21.4912 30.7111 21.6683C30.7834 21.8453 30.8903 22.0062 31.0256 22.1414C31.1608 22.2767 31.3217 22.3836 31.4987 22.4558C31.6758 22.5281 31.8655 22.5644 32.0567 22.5624C32.248 22.5605 32.4369 22.5204 32.6125 22.4445C32.788 22.3686 32.9467 22.2585 33.0791 22.1205L42.6625 12.5372C42.932 12.2676 43.0833 11.902 43.0833 11.5209C43.0833 11.1397 42.932 10.7741 42.6625 10.5045L33.0791 0.921163C32.9452 0.783176 32.7848 0.673479 32.6077 0.598568C32.4305 0.523656 32.2402 0.485054 32.0478 0.485046Z" fill="#303640"/>
</svg>
