<svg width="32" height="32" viewBox="0 0 32 32" fill="none" xmlns="http://www.w3.org/2000/svg">
<path d="M28.7898 16C28.7898 23.0624 23.0638 28.7885 16.0014 28.7885C8.93892 28.7885 3.21289 23.0624 3.21289 16C3.21289 8.93758 8.93892 3.21155 16.0014 3.21155C23.0638 3.21155 28.7898 8.93758 28.7898 16Z" fill="url(#paint0_linear_37_146)"/>
<path opacity="0.05" d="M7.12464 15.6586C12.3391 13.2959 18.4635 10.7324 19.4067 10.3616C21.4861 9.54375 22.3928 10.3795 22.2508 11.7127C22.0763 13.3464 21.2489 18.1005 20.7399 21.5067C20.4419 23.4998 19.3626 24.1104 18.1445 23.3374C17.2205 22.751 14.0438 20.671 13.2081 19.96C12.6384 19.4753 12.2413 18.9318 12.6454 18.378C12.7637 18.2162 13.0662 17.8901 13.2343 17.7277C14.0777 16.9105 13.9639 16.7347 12.944 17.4643C12.8225 17.5512 12.1179 18.0621 11.8282 18.2552C11.1185 18.7284 10.4656 18.754 9.35879 18.378C8.45336 18.0705 7.58375 17.8332 7.03512 17.596C6.27741 17.268 5.98711 16.1739 7.12464 15.6586Z" fill="black"/>
<path opacity="0.07" d="M7.58378 15.7384C12.4255 13.5739 18.3798 11.0936 19.2507 10.7426C21.3378 9.89981 22.1057 10.3998 21.8813 12.0284C21.6728 13.5362 20.933 18.2014 20.4144 21.3289C20.1088 23.1698 19.2162 23.5752 18.0537 22.8232C17.3254 22.3539 14.3943 20.4228 13.6832 19.8607C13.1333 19.4266 12.5636 18.9253 13.2292 18.1995C13.4518 17.9572 14.6807 16.7711 15.5996 15.8886C16.1322 15.3765 15.9423 15.1239 15.2997 15.5638C14.1212 16.3714 12.1934 17.6496 11.8494 17.8817C11.194 18.3229 10.5782 18.4291 9.50653 18.0921C8.66185 17.8261 7.84594 17.5684 7.42073 17.4028C6.47055 17.0345 6.45776 16.2416 7.58378 15.7384Z" fill="black"/>
<path d="M8.04117 15.819C12.5107 13.8528 18.2943 11.4556 19.093 11.1237C21.1871 10.2554 21.8297 10.4216 21.5093 12.345C21.2791 13.7274 20.6154 18.3038 20.086 21.1524C19.772 22.8418 19.0674 23.0419 17.9599 22.311C17.4273 21.9594 14.7385 20.1811 14.1547 19.7636C13.6221 19.3831 12.8874 18.9253 13.8088 18.0237C14.1368 17.7027 16.2859 15.6502 17.9605 14.0529C18.1799 13.8432 17.9043 13.4985 17.6511 13.6667C15.3939 15.1636 12.2646 17.2411 11.8662 17.5115C11.2645 17.9201 10.6865 18.1075 9.64932 17.8095C8.86538 17.5844 8.1 17.3159 7.80202 17.2136C6.65426 16.8197 6.92665 16.3094 8.04117 15.819Z" fill="white"/>
<defs>
<linearGradient id="paint0_linear_37_146" x1="6.95863" y1="6.95729" x2="25.0441" y2="25.0427" gradientUnits="userSpaceOnUse">
<stop stop-color="#33BEF0"/>
<stop offset="1" stop-color="#0A85D9"/>
</linearGradient>
</defs>
</svg>
