<svg width="30" height="30" viewBox="0 0 30 30" fill="none" xmlns="http://www.w3.org/2000/svg">
<path d="M14.9999 3.49036C13.4012 3.49036 8.53629 3.49036 5.84668 5.94614C4.24502 7.54174 3.49023 9.8473 3.49023 13.1827V15C3.49023 18.3353 4.24502 20.6409 5.86546 22.2547C6.67234 22.9907 7.77242 23.5789 9.11722 23.9853L9.54793 24.115V27.3425C9.54793 27.7211 9.65757 27.7211 9.69392 27.7211C9.76843 27.7211 9.88776 27.6975 10.1143 27.4964C10.1688 27.4425 10.5686 27.01 12.5132 24.8316L12.7094 24.6117L13.0032 24.6305C13.6544 24.6711 14.3262 24.6923 14.9999 24.6923C16.5985 24.6923 21.4634 24.6923 24.153 22.2359C25.7541 20.6403 26.5095 18.3347 26.5095 15V13.1827C26.5095 9.8473 25.7547 7.54174 24.1342 5.92797C21.4634 3.49036 16.5985 3.49036 14.9999 3.49036Z" fill="#7360F2"/>
<path d="M20.7243 17.9404C20.0513 17.3734 19.7405 17.202 18.8112 16.6441C18.4242 16.412 17.8341 16.2115 17.5246 16.2115C17.3132 16.2115 17.06 16.3733 16.9049 16.5284C16.5075 16.9257 16.3773 17.4231 15.6806 17.4231C14.9991 17.4231 13.8088 16.7295 12.9547 15.8329C12.0581 14.9788 11.3645 13.7885 11.3645 13.107C11.3645 12.4103 11.8528 12.271 12.2502 11.873C12.4052 11.7185 12.5761 11.4653 12.5761 11.2539C12.5761 10.9444 12.3756 10.3634 12.1435 9.97636C11.5856 9.0465 11.4148 8.73574 10.8472 8.06334C10.6552 7.83557 10.4365 7.73138 10.2075 7.73077C9.82042 7.73016 9.31218 7.92219 8.9681 8.17843C8.45077 8.56431 7.90982 9.08951 7.76504 9.74374C7.74566 9.83279 7.73415 9.92244 7.73052 10.0121C7.70265 10.6936 7.9704 11.3854 8.25935 11.9712C8.93963 13.3517 9.8398 14.688 10.8193 15.8814C11.1325 16.263 11.4736 16.618 11.8267 16.9609C12.1696 17.3134 12.5246 17.6545 12.9062 17.9683C14.0996 18.9478 15.4359 19.848 16.8164 20.5283C17.3968 20.8142 18.0801 21.0771 18.7549 21.0577C18.8512 21.0547 18.9475 21.0438 19.0439 21.0226C19.6981 20.8784 20.2233 20.3368 20.6092 19.8195C20.8654 19.4754 21.0574 18.9678 21.0568 18.5801C21.0562 18.3511 20.952 18.1324 20.7243 17.9404ZM21.0568 15C20.7224 15 20.4511 14.7286 20.4511 14.3942V13.7885C20.4511 10.7826 18.005 8.33654 14.9991 8.33654C14.6648 8.33654 14.3934 8.06515 14.3934 7.73077C14.3934 7.39638 14.6648 7.125 14.9991 7.125C18.6731 7.125 21.6626 10.1145 21.6626 13.7885V14.3942C21.6626 14.7286 21.3912 15 21.0568 15ZM17.3362 13.7885C17.0672 13.7885 16.8213 13.6079 16.7504 13.3353C16.5844 12.6987 16.0877 12.2013 15.4535 12.0378C15.1294 11.9536 14.9349 11.6234 15.0185 11.2994C15.1021 10.9759 15.4317 10.7814 15.757 10.8644C16.8158 11.1388 17.6457 11.9681 17.9226 13.0294C18.0068 13.3535 17.8129 13.6837 17.4895 13.7685C17.438 13.7818 17.3865 13.7885 17.3362 13.7885Z" fill="white"/>
<path d="M19.2403 14.3942C18.9059 14.3942 18.6346 14.1228 18.6346 13.7884C18.6346 11.8572 17.1238 10.2641 15.195 10.1623C14.8606 10.1447 14.6044 9.8594 14.6219 9.52563C14.6395 9.19124 14.9297 8.93439 15.2586 8.95257C17.8313 9.08826 19.8461 11.2127 19.8461 13.7884C19.8461 14.1228 19.5747 14.3942 19.2403 14.3942Z" fill="white"/>
<path d="M14.9985 2.88464C12.2725 2.88464 8.02488 3.13543 5.43704 5.49914C3.60762 7.32069 2.88312 9.87583 2.88312 13.1827C2.88312 13.4565 2.8819 13.7618 2.88433 14.0914C2.8819 14.4203 2.88312 14.7256 2.88312 14.9994C2.88312 18.3063 3.60762 20.8615 5.43704 22.683C6.42202 23.5826 7.65052 24.1744 8.94081 24.5645V27.3426C8.94081 28.3094 9.57626 28.327 9.69257 28.327H9.69802C9.99727 28.3257 10.2559 28.1791 10.5152 27.949C10.6127 27.8623 11.7389 26.6072 12.9637 25.2345C13.6931 25.2811 14.3861 25.2981 14.9979 25.2981C17.7239 25.2981 21.9709 25.0467 24.5594 22.683C26.3882 20.8621 27.1133 18.3063 27.1133 14.9994C27.1133 14.7256 27.1145 14.4203 27.1121 14.0908C27.1145 13.7612 27.1133 13.4565 27.1133 13.1821C27.1133 9.87522 26.3888 7.32009 24.5594 5.49854C21.9715 3.13543 17.7245 2.88464 14.9985 2.88464ZM25.2966 14.7886V14.9994C25.2966 17.9713 24.6635 19.9964 23.306 21.3673C20.9544 23.4808 16.4748 23.4808 14.9979 23.4808C14.5484 23.4808 13.8191 23.4802 12.9583 23.4202C12.719 23.6892 10.1523 26.5599 10.1523 26.5599V23.0083C8.87781 22.7024 7.61841 22.2008 6.69098 21.3679C5.33345 19.9964 4.70042 17.9713 4.70042 14.9994V14.7886C4.70042 14.576 4.69982 14.3464 4.70163 14.078C4.69982 13.8357 4.69982 13.6068 4.70042 13.3935V13.1827C4.70042 10.2108 5.33345 8.18573 6.69098 6.81487C9.04197 4.70135 13.5222 4.70135 14.9985 4.70135C16.4748 4.70135 20.9544 4.70135 23.3054 6.81487C24.6635 8.18573 25.296 10.2108 25.296 13.1827V13.3935C25.296 13.6062 25.2966 13.8357 25.2948 14.1041C25.2966 14.347 25.2966 14.576 25.2966 14.7886Z" fill="white"/>
</svg>
