<svg width="203" height="44" viewBox="0 0 203 44" fill="none" xmlns="http://www.w3.org/2000/svg">
<rect width="203" height="43.1719" rx="21.586" fill="white"/>
<g clip-path="url(#clip0_103_295)">
<path d="M136.408 32.5163H152.575V28.9339H141.92C143.389 23.0552 152.391 21.7692 152.391 15.2475C152.391 11.757 150.003 9.18506 144.951 9.18506C141.828 9.18506 139.072 10.1036 137.235 11.0222L138.337 14.3289C139.991 13.5023 141.92 12.7674 144.308 12.7674C146.145 12.7674 147.89 13.5941 147.89 15.7068C147.89 20.4832 137.327 20.8507 136.408 32.5163ZM153.034 26.8213H163.414V32.5163H167.547V26.8213H171.038V23.3308H167.547V9.18506H164.516L153.034 24.0656V26.8213ZM157.719 23.5145L163.597 15.6149C163.597 16.2579 163.414 18.2787 163.414 20.1158V23.4226H160.658C159.831 23.4226 158.27 23.5145 157.719 23.5145Z" fill="#005893"/>
<path d="M19.0184 29.0257V21.7692H20.7636C22.3252 21.7692 23.6111 21.9529 24.5297 22.504C25.4482 23.0551 25.9994 23.9737 25.9994 25.4434C25.9994 27.9235 24.5297 29.0257 21.0392 29.0257H19.0184ZM14.793 32.5162H20.9473C27.8365 32.5162 30.3166 29.485 30.3166 25.2597C30.3166 22.4121 29.1224 20.4832 27.0098 19.3809C25.3564 18.4624 23.2437 18.1868 20.6718 18.1868H19.0184V12.6755H28.2957L29.398 9.27686H14.7012V32.5162H14.793ZM33.1641 32.5162H37.2057L42.4414 24.9841C43.4519 23.6063 44.1867 22.2284 44.646 21.4936H44.7378C44.646 22.504 44.5541 23.79 44.5541 25.076V32.4244H48.6876V15.8904H44.646L39.4102 23.4226C38.4917 24.8004 37.665 26.1782 37.2057 26.9131H37.1138C37.2057 25.9026 37.2976 24.6167 37.2976 23.3307V15.9823H33.1641V32.5162ZM55.7604 32.5162H59.9858V19.3809H64.946L66.0482 15.8904H50.7084V19.3809H55.7604V32.5162ZM67.5179 40.875H71.6514V32.5162C72.4781 32.7918 73.3048 32.8836 74.2233 32.8836C79.4591 32.8836 82.8577 29.3013 82.8577 24.1574C82.8577 18.8298 79.7347 15.4312 73.7641 15.4312C71.4677 15.4312 69.2632 15.8904 67.4261 16.4416V40.875H67.5179ZM71.6514 28.9339V19.1972C72.2944 19.0135 72.8455 18.9217 73.5804 18.9217C76.6116 18.9217 78.5405 20.575 78.5405 24.1574C78.5405 27.3723 76.979 29.3931 73.8559 29.3931C73.0292 29.3931 72.3862 29.2094 71.6514 28.9339ZM85.3378 32.5162H89.3795L94.6152 24.9841C95.6256 23.6063 96.3605 22.2284 96.8197 21.4936H96.9116C96.8197 22.504 96.7279 23.79 96.7279 25.076V32.4244H100.861V15.8904H96.8197L91.584 23.4226C90.6654 24.8004 89.8387 26.1782 89.3795 26.9131H89.2876C89.3794 25.9026 89.4713 24.6167 89.4713 23.3307V15.9823H85.3378V32.5162ZM104.168 32.5162H108.393V25.6271H110.874C111.333 25.6271 111.792 26.0864 112.343 27.1886L114.456 32.5162H118.957L115.926 26.1782C115.374 25.076 114.823 24.433 113.997 24.1574V24.0655C115.374 23.2388 115.558 20.8506 116.385 19.6565C116.66 19.2891 117.028 19.1054 117.579 19.1054C117.855 19.1054 118.222 19.1054 118.498 19.2891V15.7067C118.038 15.523 117.212 15.4312 116.752 15.4312C115.283 15.4312 114.364 15.9823 113.721 16.9008C112.343 18.9217 112.343 22.4121 110.322 22.4121H108.393V15.8904H104.168V32.5162ZM128.326 32.8836C130.622 32.8836 132.735 32.1488 134.021 31.2302L132.827 28.3827C131.633 29.0257 130.531 29.485 128.969 29.485C126.122 29.485 124.284 27.6479 124.284 24.2493C124.284 21.218 126.122 18.8298 129.245 18.8298C130.898 18.8298 132.092 19.2891 133.286 20.1158V16.5334C132.368 15.9823 130.898 15.4312 128.785 15.4312C123.825 15.4312 119.967 19.1054 119.967 24.3411C119.967 29.1176 122.907 32.8836 128.326 32.8836Z" fill="#0BBBEF"/>
<path d="M184.722 26.8212C189.223 26.8212 192.897 23.147 192.897 18.6461C192.897 14.1452 189.223 10.4709 184.722 10.4709C180.221 10.4709 176.547 14.1452 176.547 18.6461C176.639 23.147 180.221 26.8212 184.722 26.8212Z" stroke="#005893" stroke-width="1.62473"/>
<path d="M189.869 18.6462H185.368V14.1453H184.174V19.8403H189.869V18.6462Z" fill="#005893"/>
</g>
<defs>
<clipPath id="clip0_103_295">
<rect width="179.118" height="32.1493" fill="white" transform="translate(14.6973 9.18555)"/>
</clipPath>
</defs>
</svg>
