<svg width="39" height="39" viewBox="0 0 39 39" fill="none" xmlns="http://www.w3.org/2000/svg">
<rect width="39" height="39" rx="12" fill="white"/>
<g clip-path="url(#clip0_38_3073)">
<path d="M17.0908 31.8361C14.9076 31.3847 12.8704 30.3778 11.2712 28.9596C7.16546 25.3186 5.89658 19.599 8.06553 14.5097C8.59816 13.2599 9.46409 11.9916 10.537 10.8897L11.4829 9.91823L11.5496 15.6041C11.6135 21.0466 11.6279 21.3207 11.8857 22.0066C12.4015 23.3786 12.9545 24.2522 13.9065 25.1988C16.3656 27.6441 19.9726 28.2544 23.0389 26.7439C25.921 25.3242 27.738 22.2371 27.5269 19.1189C27.3851 17.0244 26.6796 15.4885 25.1565 13.9582C24.0048 12.801 22.6498 12.0452 21.1746 11.737C19.6737 11.4234 19.7457 11.3776 19.7457 12.6461V13.7413L20.5685 13.8926C23.7552 14.4789 25.8628 17.6034 25.1986 20.7567C24.9864 21.7638 24.5132 22.6531 23.7536 23.4723C22.5993 24.7173 20.9752 25.3123 19.5571 25.3096C17.2123 25.3051 15.2543 23.9746 14.3053 22.0072C14.3053 22.0072 14.0567 21.4448 13.9768 21.0973C13.507 19.0536 13.8073 14.7516 13.8073 14.7516L13.7709 8.46124L14.1428 8.26921C14.3474 8.16359 14.5436 8.07718 14.5788 8.07718C14.614 8.07718 14.6587 10.9663 14.6781 14.4975C14.6781 14.4975 14.2265 19.1264 14.7846 20.9003C14.8651 21.1562 15.018 21.594 15.018 21.594C15.5073 22.5892 16.2914 23.4646 17.3102 23.9465C18.0836 24.3123 18.473 24.4778 19.6172 24.4778C20.3647 24.4778 21.027 24.2422 21.789 23.8923C22.6873 23.4797 23.7178 22.386 24.0986 21.3874C25.1478 18.636 23.6869 15.6759 20.8725 14.8505C19.7222 14.5132 19.7457 14.4946 19.7457 15.7434V16.8343L20.2978 16.9817C22.288 17.5132 22.8953 20.1768 21.3329 21.5454C20.7809 22.0289 20.2835 22.2427 19.4134 22.2427C18.4837 22.2427 17.5913 21.6808 17.1325 20.8189C16.8569 20.3013 16.8336 19.8102 16.8336 19.5853C16.8336 17.5079 16.7885 13.7717 16.7885 13.7717L16.7513 7.36278L17.037 7.29192C17.1942 7.25294 17.8293 7.15651 18.4485 7.07762C20.5484 6.81006 23.655 7.49621 25.742 8.68853C28.5874 10.3141 30.7404 13.1065 31.6368 16.3341C31.9452 17.4444 31.9795 17.7672 31.9795 19.5531C31.9795 21.3311 31.9444 21.6646 31.6426 22.7506C30.4233 27.1373 27.3219 30.2732 22.8873 31.6032C21.954 31.8831 21.5168 31.9365 19.8699 31.9715C18.5409 31.9998 17.6796 31.9579 17.0908 31.8361Z" fill="#C60C30"/>
</g>
<defs>
<clipPath id="clip0_38_3073">
<rect width="24.96" height="24.96" fill="white" transform="translate(7.01953 7.02002)"/>
</clipPath>
</defs>
</svg>
