<svg width="20" height="22" viewBox="0 0 20 22" fill="none" xmlns="http://www.w3.org/2000/svg">
<path d="M7.28796 22C6.33905 22 5.38322 21.6908 4.58646 21.0518L2.92033 19.7156C2.01775 18.9929 1.45062 17.9624 1.32336 16.8129C1.19818 15.678 1.535 14.521 2.24807 13.6302L7.75827 6.75214C8.3005 6.07436 9.07374 5.65041 9.93551 5.55497C10.8042 5.46298 11.6452 5.7085 12.3209 6.25003L12.7629 6.60275C13.4407 7.14705 13.8674 7.92026 13.9594 8.7827C14.0562 9.64167 13.8093 10.4903 13.2678 11.166L9.29092 16.1289C8.87594 16.6435 8.12276 16.7258 7.60818 16.315C7.09223 15.9007 7.00854 15.1475 7.42145 14.6323L11.3983 9.66933C11.5401 9.49159 11.6058 9.26959 11.5802 9.04412C11.5553 8.81589 11.444 8.61325 11.2655 8.47147L10.8243 8.11875C10.457 7.82275 9.91891 7.88222 9.62566 8.25085L4.11477 15.1289C3.79593 15.5259 3.64516 16.0432 3.70118 16.5501C3.75789 17.0647 4.01034 17.5253 4.41425 17.8483L6.08038 19.1851C6.91172 19.8505 8.13244 19.7184 8.79986 18.8829L16.5516 9.20803C17.2191 8.37465 17.0849 7.15465 16.2501 6.48864L11.6722 2.82105C11.2676 2.49668 10.762 2.34591 10.2502 2.40678C9.73633 2.4628 9.2757 2.71592 8.95271 3.11982L2.76264 10.8499C2.34766 11.3665 1.59448 11.4495 1.07991 11.0366C0.563952 10.6224 0.480265 9.86921 0.893167 9.35327L7.08531 1.62457C7.80807 0.72133 8.83859 0.154213 9.98808 0.0269574C11.1424 -0.10099 12.267 0.229598 13.1703 0.953018L17.7475 4.61992C19.61 6.11102 19.9116 8.84079 18.4211 10.704L10.6714 20.3796C9.81655 21.4453 8.55779 22 7.28796 22Z" fill="#0EB1F2"/>
</svg>
