<svg width="203" height="49" viewBox="0 0 203 49" fill="none" xmlns="http://www.w3.org/2000/svg">
<path d="M57.4415 30.8821C58.1886 30.8821 58.9571 31.2237 59.7469 31.9281C61.4546 33.4223 63.4397 34.1694 65.7024 34.1694C67.8583 34.1694 69.8008 33.4863 71.5298 32.1202C73.2589 30.754 74.4115 29.025 74.9665 26.9545H64.7845C64.1655 26.9545 63.6105 26.7197 63.0769 26.2714C62.5432 25.8231 62.2871 25.2468 62.2871 24.5637C62.2871 23.8807 62.5219 23.283 63.0128 22.8347C63.4824 22.3651 64.0801 22.1303 64.8059 22.1303H75.0733C74.5396 19.9744 73.4083 18.2026 71.6793 16.7938C69.9502 15.4063 67.9651 14.7019 65.7237 14.7019C63.6959 14.7019 61.8601 15.2996 60.2165 16.495C59.5975 17.0073 58.9998 17.2634 58.4234 17.2634C57.7617 17.2634 57.164 17.0073 56.6731 16.495C56.1608 15.9827 55.9046 15.4063 55.9046 14.7659C55.9046 14.0402 56.1608 13.4852 56.6731 13.0583C59.0852 10.9237 62.1376 9.85638 65.7664 9.85638C69.8435 9.85638 73.2802 11.2652 76.0979 14.0829C77.4213 15.385 78.4459 16.9432 79.1503 18.779C79.8548 20.5934 80.2176 22.4932 80.2176 24.457C80.2176 28.6408 78.8302 32.0988 76.0765 34.8738C73.2802 37.6701 69.8435 39.0576 65.7878 39.0576C63.8667 39.0576 62.0309 38.6947 60.2378 37.969C58.4448 37.2432 56.9079 36.1973 55.5631 34.8311C55.2215 34.4896 55.0508 34.02 55.0508 33.4436C55.0508 32.7819 55.3069 32.1842 55.8192 31.6933C56.2675 31.1383 56.8225 30.8821 57.4415 30.8821ZM109.483 11.0518C109.91 10.3046 110.529 9.89907 111.361 9.81369C112.13 9.81369 112.77 10.0485 113.304 10.4968C113.816 10.945 114.072 11.5214 114.072 12.2044V36.7949C114.072 37.4567 113.837 37.9903 113.368 38.3745C112.898 38.7588 112.301 38.9509 111.596 38.9509C110.913 38.9509 110.337 38.7588 109.888 38.3959C109.44 38.033 109.205 37.4994 109.163 36.8376V20.7428L101.82 32.2056C101.692 32.4617 101.414 32.7819 101.009 33.1021C100.603 33.4436 100.112 33.5931 99.5571 33.5931C98.7032 33.5931 97.9775 33.1448 97.4011 32.2696L90.0154 20.7428V36.859C89.9941 37.4994 89.7379 38.0117 89.2683 38.3745C88.7987 38.7374 88.2437 38.9295 87.582 38.9295C86.9203 38.9295 86.3439 38.7374 85.8743 38.3319C85.4047 37.9263 85.1485 37.4353 85.1485 36.8163V12.2685C85.1485 11.6067 85.362 11.0304 85.8103 10.5394C86.2585 10.0485 86.8349 9.79234 87.5393 9.79234C88.4785 9.79234 89.2256 10.262 89.8233 11.1798L99.5571 26.9545L109.483 11.0518ZM140.904 10.0058C141.545 10.0058 142.057 10.2193 142.462 10.6462C142.868 11.0731 143.06 11.6067 143.06 12.2471V36.9017C143.06 37.414 142.825 37.8836 142.377 38.2892C141.929 38.7161 141.331 38.9295 140.584 38.9295C139.837 38.9295 139.239 38.7161 138.812 38.3105C138.364 37.9049 138.151 37.4353 138.151 36.9017V14.9581H125.983V36.9017C125.983 37.4567 125.749 37.9476 125.3 38.3319C124.852 38.7374 124.254 38.9295 123.507 38.9295C122.824 38.9295 122.226 38.7374 121.757 38.3745C121.287 38.0117 121.031 37.5207 121.031 36.9017V12.2471C121.031 11.6708 121.266 11.1371 121.735 10.6889C122.205 10.2406 122.717 10.0058 123.315 10.0058H140.904ZM171.877 10.7956C172.325 11.2012 172.56 11.7562 172.56 12.4819V36.304C172.56 36.9871 172.325 37.5847 171.856 38.033C171.386 38.5026 170.81 38.7374 170.127 38.7374C169.401 38.7374 168.825 38.5026 168.376 38.0544C167.928 37.6061 167.693 37.0084 167.693 36.304V19.6969L154.544 37.7769C154.203 38.2465 153.733 38.5667 153.157 38.6947C152.58 38.8228 152.025 38.7588 151.492 38.5026C151.043 38.2892 150.659 37.969 150.382 37.5207C150.083 37.0724 149.933 36.6242 149.933 36.1332V12.119C149.933 11.4573 150.147 10.945 150.595 10.5608C151.043 10.1979 151.662 10.0058 152.452 10.0058C153.135 10.0058 153.712 10.1979 154.139 10.5821C154.587 10.9664 154.8 11.4787 154.8 12.119V29.0037L167.885 11.0731C168.312 10.4327 168.931 10.0912 169.743 10.0271C170.596 9.98445 171.301 10.2406 171.877 10.7956ZM192.262 34.1481C194.461 34.1481 196.446 33.4009 198.218 31.9067C198.901 31.2237 199.669 30.8608 200.502 30.8608C201.121 30.8608 201.676 31.1169 202.21 31.6079C202.743 32.0988 202.999 32.6752 202.999 33.3369C202.999 33.9132 202.807 34.4042 202.444 34.7671C199.627 37.5847 196.211 38.9936 192.22 38.9936C188.228 38.9936 184.813 37.5847 181.995 34.7671C179.199 32.0348 177.811 28.5768 177.811 24.393C177.811 22.4505 178.174 20.572 178.879 18.7576C179.604 16.9432 180.629 15.385 181.952 14.0402C184.791 11.2012 188.228 9.771 192.22 9.771C195.891 9.771 198.922 10.8383 201.27 12.9729C201.804 13.4425 202.06 14.0402 202.06 14.7659C202.06 15.385 201.825 15.94 201.356 16.4523C200.886 16.9646 200.331 17.2207 199.691 17.2207C199.114 17.2207 198.453 16.9859 197.727 16.5377C195.763 15.2782 193.927 14.6592 192.22 14.6592C189.594 14.6592 187.332 15.6198 185.474 17.5409C183.617 19.462 182.678 21.7247 182.678 24.3716C182.678 27.0399 183.617 29.3239 185.474 31.2664C187.396 33.1875 189.637 34.1481 192.262 34.1481Z" fill="white"/>
<path d="M20.9199 27.937L48.6696 0.827637L32.8736 48.4291L20.9199 27.937Z" fill="white"/>
<path opacity="0.8" d="M21.1325 28.1501L48.6687 1.04077L0 15.556L21.1325 28.1501Z" fill="white"/>
<path d="M6.40234 42.4523L18.3561 30.4985L24.1195 40.5311L6.40234 42.4523Z" fill="white"/>
<path opacity="0.8" d="M6.61914 42.4523L18.3594 30.712L8.54027 24.5217L6.61914 42.4523Z" fill="white"/>
</svg>
