<svg width="20" height="20" viewBox="0 0 20 20" fill="none" xmlns="http://www.w3.org/2000/svg">
<path d="M7.70768 2.5C6.90978 2.5 6.24935 3.16044 6.24935 3.95833V5H3.12435C2.32018 5 1.66602 5.65417 1.66602 6.45833V11.6667H8.74935V11.4583C8.74935 11.1125 9.02852 10.8333 9.37435 10.8333H10.6243C10.9702 10.8333 11.2493 11.1125 11.2493 11.4583V11.6667H18.3327V6.45833C18.3327 5.65417 17.6785 5 16.8743 5H13.7493V3.95833C13.7493 3.16044 13.0889 2.5 12.291 2.5H7.70768ZM7.70768 3.75H12.291C12.414 3.75 12.4993 3.8354 12.4993 3.95833V5H7.49935V3.95833C7.49935 3.8354 7.58475 3.75 7.70768 3.75ZM1.66602 12.9167V16.0417C1.66602 16.8458 2.32018 17.5 3.12435 17.5H16.8743C17.6785 17.5 18.3327 16.8458 18.3327 16.0417V12.9167H11.2493V13.125C11.2493 13.4708 10.9702 13.75 10.6243 13.75H9.37435C9.02852 13.75 8.74935 13.4708 8.74935 13.125V12.9167H1.66602Z" fill="white"/>
</svg>
