<svg width="20" height="20" viewBox="0 0 20 20" fill="none" xmlns="http://www.w3.org/2000/svg">
<path d="M1.45812 2.49994C1.3753 2.49877 1.29307 2.51407 1.21622 2.54495C1.13936 2.57584 1.06941 2.62169 1.01043 2.67984C0.95145 2.73799 0.904615 2.80729 0.872648 2.8837C0.840681 2.96011 0.824219 3.04211 0.824219 3.12494C0.824219 3.20777 0.840681 3.28977 0.872648 3.36618C0.904615 3.44259 0.95145 3.51189 1.01043 3.57004C1.06941 3.62819 1.13936 3.67404 1.21622 3.70493C1.29307 3.73581 1.3753 3.75111 1.45812 3.74994H2.6064C2.9097 3.74994 3.16253 3.95949 3.22 4.25775L3.34289 4.90147C3.34332 4.90391 3.34324 4.90635 3.3437 4.90879L3.67899 6.66661H7.08312C7.31312 6.66661 7.49979 6.85327 7.49979 7.08327C7.49979 7.31327 7.31312 7.49994 7.08312 7.49994H1.45812C1.3753 7.49877 1.29307 7.51407 1.21622 7.54495C1.13936 7.57584 1.06941 7.62169 1.01043 7.67984C0.95145 7.73799 0.904615 7.80729 0.872648 7.8837C0.840681 7.96011 0.824219 8.04211 0.824219 8.12494C0.824219 8.20777 0.840681 8.28977 0.872648 8.36618C0.904615 8.44259 0.95145 8.51189 1.01043 8.57004C1.06941 8.62819 1.13936 8.67404 1.21622 8.70493C1.29307 8.73581 1.3753 8.75111 1.45812 8.74994H7.08312H7.91645C8.14645 8.74994 8.33312 8.93661 8.33312 9.16661C8.33312 9.39661 8.14645 9.58327 7.91645 9.58327H2.29145C2.20863 9.5821 2.12641 9.5974 2.04955 9.62829C1.9727 9.65917 1.90275 9.70502 1.84377 9.76317C1.78478 9.82133 1.73795 9.89062 1.70598 9.96703C1.67401 10.0434 1.65755 10.1254 1.65755 10.2083C1.65755 10.2911 1.67401 10.3731 1.70598 10.4495C1.73795 10.5259 1.78478 10.5952 1.84377 10.6534C1.90275 10.7115 1.9727 10.7574 2.04955 10.7883C2.12641 10.8191 2.20863 10.8344 2.29145 10.8333H7.91645H8.33312C8.56312 10.8333 8.74979 11.0199 8.74979 11.2499C8.74979 11.4799 8.56312 11.6666 8.33312 11.6666H4.63113L4.6881 11.9653C4.93143 13.2411 6.05048 14.1666 7.34923 14.1666H15.1503C16.4491 14.1666 17.5686 13.2411 17.8115 11.9653L19.1559 4.90798C19.1905 4.72506 19.142 4.53659 19.0232 4.39284C18.9045 4.24951 18.7277 4.16661 18.5415 4.16661H4.47488L4.44803 4.02419C4.28006 3.14391 3.50269 2.49994 2.6064 2.49994H1.45812ZM8.33312 14.9999C8.0016 14.9999 7.68366 15.1316 7.44924 15.3661C7.21482 15.6005 7.08312 15.9184 7.08312 16.2499C7.08312 16.5815 7.21482 16.8994 7.44924 17.1338C7.68366 17.3682 8.0016 17.4999 8.33312 17.4999C8.66464 17.4999 8.98258 17.3682 9.217 17.1338C9.45142 16.8994 9.58312 16.5815 9.58312 16.2499C9.58312 15.9184 9.45142 15.6005 9.217 15.3661C8.98258 15.1316 8.66464 14.9999 8.33312 14.9999ZM14.1665 14.9999C13.8349 14.9999 13.517 15.1316 13.2826 15.3661C13.0482 15.6005 12.9165 15.9184 12.9165 16.2499C12.9165 16.5815 13.0482 16.8994 13.2826 17.1338C13.517 17.3682 13.8349 17.4999 14.1665 17.4999C14.498 17.4999 14.8159 17.3682 15.0503 17.1338C15.2848 16.8994 15.4165 16.5815 15.4165 16.2499C15.4165 15.9184 15.2848 15.6005 15.0503 15.3661C14.8159 15.1316 14.498 14.9999 14.1665 14.9999Z" fill="white"/>
</svg>
