<svg width="76" height="76" viewBox="0 0 76 76" fill="none" xmlns="http://www.w3.org/2000/svg">
<circle cx="38" cy="38" r="38" fill="#FF8526"/>
<path d="M56.9009 18.4005C56.3326 18.3822 55.7482 18.5667 55.3082 18.9333L43.7582 29.0568C43.7382 29.0554 43.7181 29.0545 43.698 29.0539C43.6046 29.0556 43.5116 29.0661 43.4202 29.0854C41.3066 29.5258 39.5802 30.7364 38.6134 32.4341C37.9291 33.6359 37.6414 35.0497 37.7397 36.5333H27.7337C27.5394 36.5306 27.3464 36.5665 27.1661 36.639C26.9857 36.7115 26.8216 36.819 26.6831 36.9555C26.5447 37.092 26.4348 37.2546 26.3598 37.4339C26.2848 37.6132 26.2462 37.8056 26.2462 38C26.2462 38.1944 26.2848 38.3868 26.3598 38.5661C26.4348 38.7454 26.5447 38.9081 26.6831 39.0445C26.8216 39.181 26.9857 39.2886 27.1661 39.3611C27.3464 39.4335 27.5394 39.4694 27.7337 39.4667H39.4184C39.4353 39.4672 39.4501 39.4662 39.4671 39.4667H39.4728C41.8547 39.5389 43.8298 39.3068 45.4111 38.3581C47.0049 37.4018 47.9428 35.6434 48.1152 33.5742V33.5656L58.2415 22.0128C58.9749 21.1328 59.121 19.9594 58.3876 19.0794C58.021 18.6394 57.4692 18.4189 56.9009 18.4005ZM23.3337 23.3333C21.7204 23.3333 20.4004 24.6533 20.4004 26.2667V45.3333C20.4004 46.9467 21.7204 48.2667 23.3337 48.2667H52.6671C54.2804 48.2667 55.6004 46.9467 55.6004 45.3333V29.4922L52.6671 32.8667V42.4H23.3337V26.2667H42.4004L45.7749 23.3333H23.3337ZM43.3056 32.2479L45.0129 34.0698C44.8269 34.9265 44.5103 35.4776 43.9014 35.843C43.3337 36.1836 42.0113 36.2544 40.7475 36.3386C40.6901 35.3968 40.7899 34.5415 41.1629 33.8865C41.5903 33.1359 42.3385 32.6043 43.3056 32.2479ZM38.0004 43.8667C38.8804 43.8667 39.4671 44.4534 39.4671 45.3333C39.4671 46.2134 38.8804 46.8 38.0004 46.8C37.1204 46.8 36.5337 46.2134 36.5337 45.3333C36.5337 44.4534 37.1204 43.8667 38.0004 43.8667ZM30.6671 51.2C30.4727 51.1973 30.2797 51.2332 30.0994 51.3056C29.919 51.3781 29.7549 51.4857 29.6165 51.6222C29.4781 51.7586 29.3682 51.9213 29.2931 52.1006C29.2181 52.2799 29.1795 52.4723 29.1795 52.6667C29.1795 52.8611 29.2181 53.0535 29.2931 53.2328C29.3682 53.4121 29.4781 53.5747 29.6165 53.7112C29.7549 53.8476 29.919 53.9552 30.0994 54.0277C30.2797 54.1002 30.4727 54.1361 30.6671 54.1334H45.3337C45.5281 54.1361 45.721 54.1002 45.9014 54.0277C46.0817 53.9552 46.2459 53.8476 46.3843 53.7112C46.5227 53.5747 46.6326 53.4121 46.7076 53.2328C46.7826 53.0535 46.8213 52.8611 46.8213 52.6667C46.8213 52.4723 46.7826 52.2799 46.7076 52.1006C46.6326 51.9213 46.5227 51.7586 46.3843 51.6222C46.2459 51.4857 46.0817 51.3781 45.9014 51.3056C45.721 51.2332 45.5281 51.1973 45.3337 51.2H30.6671Z" fill="white"/>
</svg>
