<svg width="60" height="60" viewBox="0 0 60 60" fill="none" xmlns="http://www.w3.org/2000/svg">
<circle cx="30" cy="30" r="30" fill="#0DF76B"/>
<path d="M41.6259 17.5625H18.3759C17.0622 17.5625 15.9559 18.4681 15.6484 19.6875H44.3534C44.0459 18.4681 42.9397 17.5625 41.6259 17.5625Z" fill="#0A2540"/>
<path d="M30 33.5625C30.8629 33.5625 31.5625 32.8629 31.5625 32C31.5625 31.1371 30.8629 30.4375 30 30.4375C29.1371 30.4375 28.4375 31.1371 28.4375 32C28.4375 32.8629 29.1371 33.5625 30 33.5625Z" fill="#0A2540"/>
<path d="M39.7159 25.9375H20.2841C19.9914 26.8045 19.3045 27.4914 18.4375 27.7841V36.2159C19.3045 36.5086 19.9914 37.1955 20.2841 38.0625H39.7159C40.0086 37.1955 40.6955 36.5086 41.5625 36.2159V27.7841C40.6955 27.4914 40.0086 26.8045 39.7159 25.9375ZM23.5 32.9375H21.5C20.9822 32.9375 20.5625 32.5177 20.5625 32C20.5625 31.4823 20.9822 31.0625 21.5 31.0625H23.5C24.0177 31.0625 24.4375 31.4823 24.4375 32C24.4375 32.5177 24.0177 32.9375 23.5 32.9375ZM30 35.4375C28.1046 35.4375 26.5625 33.8954 26.5625 32C26.5625 30.1046 28.1046 28.5625 30 28.5625C31.8954 28.5625 33.4375 30.1046 33.4375 32C33.4375 33.8954 31.8954 35.4375 30 35.4375ZM38.5 32.9375H36.5C35.9823 32.9375 35.5625 32.5177 35.5625 32C35.5625 31.4823 35.9823 31.0625 36.5 31.0625H38.5C39.0177 31.0625 39.4375 31.4823 39.4375 32C39.4375 32.5177 39.0177 32.9375 38.5 32.9375Z" fill="#0A2540"/>
<path d="M43.1875 21.5625H16.8125C15.2617 21.5625 14 22.8242 14 24.375V39.625C14 41.1758 15.2617 42.4375 16.8125 42.4375H43.1875C44.7383 42.4375 46 41.1758 46 39.625V24.375C46 22.8242 44.7383 21.5625 43.1875 21.5625ZM43.4375 37C43.4375 37.5177 43.0177 37.9375 42.5 37.9375C41.9141 37.9375 41.4375 38.4141 41.4375 39C41.4375 39.5177 41.0177 39.9375 40.5 39.9375H19.5C18.9823 39.9375 18.5625 39.5177 18.5625 39C18.5625 38.4141 18.0859 37.9375 17.5 37.9375C16.9822 37.9375 16.5625 37.5177 16.5625 37V27C16.5625 26.4823 16.9822 26.0625 17.5 26.0625C18.0859 26.0625 18.5625 25.5859 18.5625 25C18.5625 24.4822 18.9823 24.0625 19.5 24.0625H40.5C41.0177 24.0625 41.4375 24.4822 41.4375 25C41.4375 25.5859 41.9141 26.0625 42.5 26.0625C43.0177 26.0625 43.4375 26.4823 43.4375 27V37Z" fill="#0A2540"/>
</svg>
