<svg width="30" height="30" viewBox="0 0 30 30" fill="none" xmlns="http://www.w3.org/2000/svg">
<circle cx="15" cy="15" r="15" fill="#C60C30"/>
<g clip-path="url(#clip0_38_3345)">
<path d="M13.1664 24.3905C11.5045 24.0469 9.95381 23.2803 8.73642 22.2008C5.61108 19.4292 4.64519 15.0753 6.29623 11.2013C6.70168 10.2499 7.36084 9.28445 8.17756 8.44566L8.89759 7.70617L8.94837 12.0344C8.99698 16.1773 9.00794 16.386 9.20421 16.908C9.59686 17.9524 10.0178 18.6174 10.7425 19.338C12.6144 21.1994 15.3601 21.664 17.6943 20.5142C19.8882 19.4335 21.2713 17.0835 21.1106 14.7099C21.0026 13.1155 20.4656 11.9463 19.3062 10.7815C18.4295 9.90062 17.398 9.32525 16.2751 9.09065C15.1326 8.85196 15.1874 8.81708 15.1874 9.78269V10.6163L15.8137 10.7316C18.2395 11.1778 19.8438 13.5563 19.3382 15.9566C19.1767 16.7232 18.8165 17.4002 18.2383 18.0238C17.3596 18.9715 16.1233 19.4244 15.0438 19.4223C13.2589 19.4189 11.7684 18.4062 11.0461 16.9085C11.0461 16.9085 10.8568 16.4804 10.796 16.2159C10.4384 14.6602 10.667 11.3854 10.667 11.3854L10.6393 6.59708L10.9224 6.4509C11.0781 6.37051 11.2274 6.30473 11.2542 6.30473C11.281 6.30473 11.3151 8.504 11.3299 11.192C11.3299 11.192 10.9861 14.7156 11.4109 16.0659C11.4722 16.2607 11.5886 16.5939 11.5886 16.5939C11.961 17.3515 12.5579 18.0179 13.3334 18.3847C13.9222 18.6632 14.2186 18.7892 15.0895 18.7892C15.6586 18.7892 16.1627 18.6098 16.7428 18.3434C17.4266 18.0294 18.211 17.1969 18.5009 16.4367C19.2996 14.3423 18.1875 12.089 16.0451 11.4607C15.1695 11.2039 15.1874 11.1898 15.1874 12.1404V12.9708L15.6077 13.083C17.1226 13.4876 17.5849 15.5152 16.3956 16.557C15.9754 16.925 15.5968 17.0877 14.9345 17.0877C14.2267 17.0877 13.5474 16.66 13.1981 16.004C12.9884 15.6099 12.9706 15.2361 12.9706 15.0649C12.9706 13.4836 12.9363 10.6395 12.9363 10.6395L12.908 5.76091L13.1255 5.70697C13.2451 5.67731 13.7286 5.6039 14.1999 5.54384C15.7984 5.34017 18.1632 5.86249 19.7519 6.7701C21.9179 8.00749 23.5567 10.1332 24.2391 12.5901C24.4738 13.4352 24.5 13.6809 24.5 15.0404C24.5 16.3939 24.4732 16.6477 24.2435 17.4744C23.3154 20.8136 20.9545 23.2008 17.5788 24.2132C16.8684 24.4262 16.5356 24.4669 15.282 24.4935C14.2703 24.5151 13.6146 24.4831 13.1664 24.3905Z" fill="white"/>
</g>
<defs>
<clipPath id="clip0_38_3345">
<rect width="19" height="19" fill="white" transform="translate(5.5 5.5)"/>
</clipPath>
</defs>
</svg>
