<svg width="44" height="44" viewBox="0 0 44 44" fill="none" xmlns="http://www.w3.org/2000/svg">
<circle cx="22" cy="22" r="22" fill="#FF2B51"/>
<path d="M15.6267 33.0769H28.3742C29.9896 33.0769 31.3098 31.7662 31.3098 30.1508V13.8585C31.3098 12.2431 29.9896 10.9231 28.3742 10.9231H19.1897C18.4052 10.9231 17.6667 11.237 17.1128 11.7908L13.5498 15.3539C12.9959 15.9077 12.6914 16.6369 12.6914 17.4215V30.1508C12.6914 31.7662 14.0113 33.0769 15.6267 33.0769ZM26.6935 29.3892H24.174C23.6638 29.3892 23.2509 28.9759 23.2509 28.4661C23.2509 27.9564 23.6638 27.543 24.174 27.543H26.6935C27.2037 27.543 27.6166 27.9564 27.6166 28.4661C27.6166 28.9759 27.2037 29.3892 26.6935 29.3892ZM19.5874 15.5016H24.4147C24.9249 15.5016 25.3377 15.9149 25.3377 16.4247C25.3377 16.9344 24.9249 17.3477 24.4147 17.3477H19.5874C19.0772 17.3477 18.6644 16.9344 18.6644 16.4247C18.6644 15.9149 19.0772 15.5016 19.5874 15.5016ZM17.3086 19.316H26.6935C27.2037 19.316 27.6166 19.7293 27.6166 20.2391C27.6166 20.7489 27.2037 21.1622 26.6935 21.1622H17.3086C16.7984 21.1622 16.3855 20.7489 16.3855 20.2391C16.3855 19.7293 16.7984 19.316 17.3086 19.316ZM17.3086 23.1305H22.3855C22.8957 23.1305 23.3086 23.5438 23.3086 24.0536C23.3086 24.5633 22.8957 24.9766 22.3855 24.9766H17.3086C16.7984 24.9766 16.3855 24.5633 16.3855 24.0536C16.3855 23.5438 16.7984 23.1305 17.3086 23.1305Z" fill="white"/>
</svg>
