<svg width="22" height="22" viewBox="0 0 22 22" fill="none" xmlns="http://www.w3.org/2000/svg">
<path d="M17.1747 20.6799C17.1678 20.6799 17.1609 20.6799 17.154 20.6799C13.8472 20.5716 9.97311 17.3661 7.30389 14.6952C4.63123 12.0243 1.42577 8.14849 1.32264 4.85708C1.28483 3.70208 4.11905 1.64818 4.14827 1.62755C4.88389 1.11536 5.7003 1.29755 6.03545 1.76161C6.26233 2.07614 8.41077 5.33146 8.64452 5.70099C8.88686 6.08427 8.85077 6.65489 8.54827 7.22724C8.38155 7.54521 7.82811 8.51802 7.56858 8.97177C7.84873 9.37052 8.58952 10.3485 10.1192 11.8782C11.6506 13.4079 12.6269 14.1504 13.0273 14.4305C13.4811 14.171 14.4539 13.6175 14.7719 13.4508C15.3356 13.1518 15.9028 13.114 16.2895 13.3511C16.6848 13.5935 19.9315 15.7522 20.2306 15.9602C20.4815 16.1372 20.6431 16.4397 20.6758 16.7921C20.7067 17.1479 20.5967 17.5243 20.3681 17.8526C20.3492 17.8801 18.3194 20.6799 17.1747 20.6799Z" fill="white"/>
</svg>
