<?xml version="1.0" encoding="UTF-8"?>
<svg id="maket_Listovka_AKTCIY_24_300423_Изображение" data-name="maket_Listovka_AKTCIY_24_300423 Изображение" xmlns="http://www.w3.org/2000/svg" xmlns:xlink="http://www.w3.org/1999/xlink" viewBox="0 0 283.46 264.97">
  <defs>
    <style>
      .cls-1 {
        fill: url(#New_Gradient_Swatch_copy_2);
      }

      .cls-1, .cls-2, .cls-3, .cls-4 {
        stroke-width: 0px;
      }

      .cls-2 {
        fill: #86bd34;
      }

      .cls-3 {
        fill: #d30630;
      }

      .cls-4 {
        fill: #fff;
      }
    </style>
    <linearGradient id="New_Gradient_Swatch_copy_2" data-name="New Gradient Swatch copy 2" x1="101.73" y1="125.21" x2="147.85" y2="125.21" gradientTransform="translate(-9.3 -52.5) rotate(-1.31) scale(1 .91)" gradientUnits="userSpaceOnUse">
      <stop offset="0" stop-color="#008739"/>
      <stop offset=".14" stop-color="#058938"/>
      <stop offset=".33" stop-color="#168f38"/>
      <stop offset=".54" stop-color="#319a37"/>
      <stop offset=".76" stop-color="#57aa35"/>
      <stop offset="1" stop-color="#86bd34"/>
    </linearGradient>
  </defs>
  <path class="cls-3" d="m283.46,0H0s0,264.97,0,264.97c0,0,26.4-11.33,62.01-11.33,67.78,0,108.96,11.33,160.1,11.33,44.11,0,61.35-32.97,61.35-51.34V0Z"/>
  <g>
    <g>
      <path class="cls-2" d="m116.06,43.23c-21.85,6.81-22.81,24-20.45,42.46,2.81-13.65,21.05-29.42,41.95-38.54l.35-15.17c-.82,1.84-2.61,5.26-21.86,11.26Z"/>
      <path class="cls-2" d="m137.87,32.09l.04-.12s-.03.06-.04.12Z"/>
      <path class="cls-2" d="m137.63,32.8c.15-.33.21-.57.25-.71l-.25.71Z"/>
    </g>
    <path class="cls-1" d="m137.91,31.97c-.52,3.09-1.51,8.63-5.22,12.77-7.12,7.94-16.66,8.35-26.21,15.81-4.92,3.84-9.9,11.42-10.87,25.14.47-.93,1.23-2.32,2.39-3.87,3.42-4.6,7.48-7.28,9.51-8.22,13.79-6.41,22.69-7.2,29.64-15.14,3.37-3.85,5.91-12.21.76-26.48Z"/>
  </g>
  <g>
    <path class="cls-4" d="m136.07,69.95c-3.26,0-6.38.91-9.07,2.54s-4.93,3.98-6.43,6.87l-11.7,22.22-11.7,22.22c-.33.63-.94.94-1.55.94s-1.22-.31-1.55-.94l-11.7-22.22-11.7-22.22c-1.5-2.89-3.75-5.24-6.43-6.87-2.68-1.63-5.81-2.54-9.07-2.54h-17.21v66.64c0,2.41.98,4.6,2.56,6.18,1.58,1.58,3.76,2.56,6.18,2.56h10.24v-44.52c0-.91.61-1.52,1.33-1.7s1.54.08,1.96.89l10.95,20.77,10.95,20.77c.6,1.16,1.5,2.1,2.57,2.75s2.32,1.01,3.63,1.01h14.58c1.3,0,2.55-.36,3.63-1.01s1.97-1.59,2.57-2.75l11.07-21.01,11.07-21.01c.42-.81,1.25-1.07,1.96-.89s1.33.78,1.33,1.7v36.25c0,2.41.98,4.6,2.56,6.18,1.58,1.58,3.76,2.56,6.18,2.56h10.41v-75.37h-17.62Z"/>
    <path class="cls-4" d="m213.56,69.92h-50.38v66.68c0,4.81,3.9,8.72,8.72,8.72h10.19v-23.62c0-.96.78-1.74,1.74-1.74h29.73c13.82,0,34.9-4.1,34.9-25.02s-21.09-25.02-34.9-25.02Zm-1.76,34.42h-29.72v-18.81h29.72c6.7,0,16.92,1.74,16.92,9.4s-10.22,9.4-16.92,9.4Z"/>
    <g>
      <polygon class="cls-4" points="49.75 164.1 42.84 154.81 37.94 154.81 37.94 175.09 43.31 175.09 43.31 163.64 48.84 171.1 50.38 171.1 55.72 163.74 55.72 175.09 61.09 175.09 61.09 154.81 56.32 154.81 49.75 164.1"/>
      <path class="cls-4" d="m64.29,161.72c0,2.84,1.67,4.92,4.7,5.89l-6.58,7.47h6.42l5.62-6.53h3.37v6.53h5.37v-20.28h-9.45c-5.83,0-9.45,2.65-9.45,6.92Zm9.17-2.32h4.37v4.56h-4.56c-1.98,0-3.42-.95-3.42-2.27,0-1.07.41-2.29,3.61-2.29Z"/>
      <path class="cls-4" d="m103.39,168.14c-1.48,1.66-3.51,2.54-5.88,2.54-3.74,0-6.35-2.36-6.35-5.74s2.52-5.74,6.41-5.74c1.9,0,3.89.84,5.06,2.15l.16.18,3.66-3.01-.13-.19c-1.68-2.38-5.16-3.86-9.09-3.86-6.73,0-11.62,4.41-11.62,10.48s4.51,10.48,11.5,10.48c4,0,7.57-1.56,9.56-4.17l.13-.18-3.24-3.13-.17.19Z"/>
      <polygon class="cls-4" points="123.1 162.58 113.83 162.58 113.83 154.81 108.46 154.81 108.46 175.09 113.83 175.09 113.83 167.17 123.1 167.17 123.1 175.09 128.47 175.09 128.47 154.81 123.1 154.81 123.1 162.58"/>
      <polygon class="cls-4" points="137.44 166.51 137.44 154.81 132.07 154.81 132.07 175.09 136.42 175.09 146.77 163.43 146.77 175.09 152.14 175.09 152.14 154.81 147.72 154.81 137.44 166.51"/>
      <polygon class="cls-4" points="174.86 154.81 169.49 154.81 169.49 170.49 161.1 170.49 161.1 154.81 155.73 154.81 155.73 175.09 172.38 175.09 172.38 178.39 177.4 178.39 177.4 170.49 174.86 170.49 174.86 154.81"/>
      <polygon class="cls-4" points="200.09 154.81 193 154.81 184.9 162.2 184.9 154.81 179.53 154.81 179.53 175.09 184.9 175.09 184.9 168.31 186.21 167.11 193.56 175.09 200.65 175.09 190.25 163.83 200.09 154.81"/>
      <polygon class="cls-4" points="207.15 166.51 207.15 154.81 201.78 154.81 201.78 175.09 206.14 175.09 216.49 163.43 216.49 175.09 221.85 175.09 221.85 154.81 217.44 154.81 207.15 166.51"/>
      <polygon class="cls-4" points="241.1 154.81 230.82 166.51 230.82 154.81 225.45 154.81 225.45 175.09 229.8 175.09 240.15 163.43 240.15 175.09 245.52 175.09 245.52 154.81 241.1 154.81"/>
      <path class="cls-4" d="m235.88,154.49c2.74,0,5.93-2.08,6.09-4.87l.02-.27h-4.56l-.03.21c-.14.91-.97,1.23-1.7,1.23-.91,0-1.41-.39-1.64-1.25l-.05-.19h-4.57l.05.29c.52,3.12,2.79,4.84,6.4,4.84Z"/>
    </g>
    <g>
      <path class="cls-4" d="m51.95,184.57h-14.01v31.12h6.38v-10.5h7.58c3.39,0,14.45-.74,14.45-10.31,0-4.7-2.5-10.31-14.4-10.31Zm7.77,10.27c0,3.26-2.66,4.91-7.92,4.91h-7.48v-9.74h7.82c5.03,0,7.58,1.62,7.58,4.82Z"/>
      <path class="cls-4" d="m69,194.8c0,4.52,2.89,7.82,7.95,9.11l-10.64,11.79h7.72l9.58-10.76h7.17v10.76h6.38v-31.12h-14.1c-10.36,0-14.06,5.28-14.06,10.22Zm13.62-4.78h8.16v9.47h-8.73c-3.84-.16-6.42-2.05-6.42-4.69,0-3.17,2.35-4.78,6.99-4.78Z"/>
      <path class="cls-4" d="m131.44,210.25v-25.68h-24.56v4.71c0,13.15-1.46,17.93-3.67,20.97h-3.77v10.82h6.19v-5.38h23.76v5.38h6.19v-10.82h-4.13Zm-6.38-20.24v20.24h-15.17c2.1-3.79,3.08-9.71,3.08-18.56v-1.68h12.09Z"/>
    </g>
    <g>
      <path class="cls-4" d="m154.55,184.61h9.03v1.42h-7.38v10.28h-1.65v-11.7Z"/>
      <path class="cls-4" d="m167.37,184.57h1.3l5.57,11.73h-1.72l-1.41-2.96h-6.22l-1.4,2.96h-1.69l5.57-11.73Zm-1.87,7.44h4.99l-2.5-5.32-2.48,5.32Z"/>
      <path class="cls-4" d="m175.53,196.31v-11.7h4.93c4.24,0,5.2,1.89,5.2,3.68,0,1.89-1.34,3.71-5.22,3.71h-3.26v4.31h-1.65Zm1.65-10.28v4.56h3.23c2.48,0,3.55-.94,3.55-2.32,0-1.3-.91-2.24-3.43-2.24h-3.35Z"/>
      <path class="cls-4" d="m190.46,184.57h1.3l5.57,11.73h-1.72l-1.41-2.96h-6.22l-1.4,2.96h-1.69l5.57-11.73Zm-1.87,7.44h4.99l-2.5-5.32-2.48,5.32Z"/>
      <path class="cls-4" d="m207.83,191.07h-7.56v5.23h-1.65v-11.7h1.65v5.05h7.56v-5.05h1.65v11.7h-1.65v-5.23Z"/>
      <path class="cls-4" d="m210.78,184.61h10.48v1.42h-4.42v10.28h-1.65v-10.28h-4.41v-1.42Z"/>
      <path class="cls-4" d="m222.56,196.31v-11.7h1.65v9.06l7.69-9.06h1.41v11.7h-1.65v-9.06l-7.7,9.06h-1.4Z"/>
      <path class="cls-4" d="m243.87,191.98h-3.41l-3.86,4.33h-1.99l4.12-4.58c-2.03-.37-3.26-1.64-3.26-3.44,0-2.02,1.6-3.68,5-3.68h5.06v11.7h-1.65v-4.33Zm0-1.42v-4.53h-3.57c-2.25,0-3.12.99-3.12,2.29,0,1.19,1.03,2.12,2.81,2.24h3.88Z"/>
      <path class="cls-4" d="m154.55,204h5.13c3.44,0,4.48,1.22,4.48,2.91,0,1.29-.67,2.22-1.79,2.67,1.38.27,2.25,1.24,2.25,2.77,0,2.37-1.99,3.34-5.02,3.34h-5.04v-11.7Zm1.65,1.42v3.61h3.61c1.61,0,2.66-.67,2.66-1.81,0-1.2-.72-1.81-2.94-1.81h-3.34Zm0,5v3.86h3.37c2.3,0,3.34-.62,3.34-2.01,0-1.24-.96-1.86-3.15-1.86h-3.55Z"/>
      <path class="cls-4" d="m166.51,204h1.65v5.65l6.42-5.65h2.16l-5.98,5.3,6.42,6.4h-2.18l-5.47-5.4-1.36,1.2v4.2h-1.65v-11.7Z"/>
      <path class="cls-4" d="m181.58,214.11c.15.1.33.18.58.18.54,0,1.02-.57,1.5-1.5l-6.15-8.79h1.98l5.02,7.24,3.75-7.24h1.7l-4.75,9.03c-.89,1.72-1.74,2.67-3.12,2.67-.63,0-1.16-.3-1.34-.47l.82-1.12Z"/>
      <path class="cls-4" d="m201.29,213.79c-.96,1.24-2.86,2.06-4.93,2.06-4.01,0-6.54-2.36-6.54-6,0-3.36,2.48-6,6.42-6,2.28,0,4.02.89,4.88,1.94l-1.07.95c-.98-.9-2.1-1.44-3.77-1.44-2.95,0-4.73,1.87-4.73,4.55s1.98,4.55,4.93,4.55c1.76,0,3.01-.67,3.88-1.57l.94.97Z"/>
      <path class="cls-4" d="m207.27,203.96h1.3l5.57,11.73h-1.72l-1.41-2.96h-6.22l-1.4,2.96h-1.69l5.57-11.73Zm-1.87,7.44h4.99l-2.5-5.32-2.48,5.32Z"/>
    </g>
  </g>
</svg>