<svg width="30" height="30" viewBox="0 0 30 30" fill="none" xmlns="http://www.w3.org/2000/svg">
<path d="M3.41211 26.6931L5.04405 20.7354C4.03726 18.992 3.50782 17.0135 3.50843 14.9873C3.51146 8.64788 8.67019 3.49036 15.0102 3.49036C18.0869 3.49157 20.974 4.68917 23.1456 6.86207C25.3167 9.03557 26.5125 11.9239 26.5113 14.9963C26.5089 21.3357 21.3489 26.4938 15.0102 26.4938C15.0096 26.4938 15.0102 26.4938 15.0102 26.4938H15.0053C13.0808 26.4932 11.189 26.0104 9.50918 25.0939L3.41211 26.6931Z" fill="white"/>
<path d="M3.41199 26.9961C3.33203 26.9961 3.25449 26.9646 3.19695 26.9064C3.12123 26.8295 3.09154 26.7174 3.12001 26.6138L4.71864 20.7766C3.7276 19.0163 3.20482 17.0172 3.20603 14.9879C3.20846 8.48071 8.50349 3.1875 15.0101 3.1875C18.1661 3.18871 21.1313 4.41782 23.36 6.64826C25.5886 8.87931 26.8153 11.8439 26.8141 14.9964C26.8116 21.5029 21.516 26.7968 15.0101 26.7968C13.0783 26.7962 11.1671 26.3194 9.4709 25.4174L3.48893 26.9858C3.46349 26.993 3.43804 26.9961 3.41199 26.9961Z" fill="white"/>
<path d="M15.0107 3.49041C18.0874 3.49162 20.9745 4.68923 23.1462 6.86212C25.3173 9.03562 26.5131 11.9239 26.5119 14.9964C26.5094 21.3358 21.3495 26.4939 15.0107 26.4939H15.0059C13.0813 26.4933 11.1895 26.0105 9.50973 25.094L3.41266 26.6932L5.0446 20.7355C4.03781 18.992 3.50837 17.0136 3.50898 14.9873C3.51201 8.64793 8.67074 3.49041 15.0107 3.49041ZM15.0107 2.88464C8.33756 2.88464 2.90624 8.31355 2.90321 14.9873C2.9026 17.0269 3.41751 19.0369 4.39401 20.816L2.82809 26.5339C2.77115 26.7429 2.8293 26.9658 2.98196 27.1197C3.09705 27.236 3.25274 27.2996 3.41266 27.2996C3.46415 27.2996 3.51564 27.2929 3.56652 27.2796L9.43461 25.7409C11.1477 26.6302 13.068 27.0997 15.0059 27.1003C21.6839 27.1003 27.1152 21.6708 27.1182 14.997C27.1194 11.7628 25.8613 8.72184 23.5757 6.43445C21.2889 4.14646 18.2473 2.88586 15.0107 2.88464Z" fill="#CFD8DC"/>
<path d="M21.7711 8.23478C19.9659 6.42838 17.5664 5.4331 15.0125 5.4325C9.73988 5.4325 5.45164 9.71892 5.44922 14.9879C5.44861 16.7937 5.95383 18.5516 6.91094 20.0739L7.13871 20.4356L6.17251 23.9618L9.79077 23.0131L10.1403 23.2203C11.6075 24.0914 13.2903 24.5518 15.0058 24.5524H15.0095C20.2784 24.5524 24.5667 20.2654 24.5685 14.9958C24.5691 12.4425 23.5763 10.0412 21.7711 8.23478Z" fill="#40C351"/>
<path fill-rule="evenodd" clip-rule="evenodd" d="M12.1342 10.1811C11.9191 9.70258 11.6925 9.69289 11.4872 9.68441C11.3194 9.67714 11.128 9.67775 10.9365 9.67775C10.7451 9.67775 10.4338 9.74983 10.1702 10.0376C9.90674 10.3253 9.16406 11.0201 9.16406 12.434C9.16406 13.8479 10.1939 15.2145 10.3374 15.4059C10.481 15.5973 12.3256 18.5916 15.2466 19.7438C17.6739 20.7009 18.1682 20.5107 18.6952 20.4629C19.2223 20.415 20.3956 19.768 20.6349 19.0968C20.8742 18.4257 20.8742 17.8508 20.8027 17.7308C20.7306 17.6109 20.5392 17.5394 20.2521 17.3952C19.9649 17.2511 18.5517 16.5563 18.2882 16.4605C18.0247 16.3648 17.8332 16.317 17.6412 16.6047C17.4498 16.8918 16.8991 17.5394 16.7313 17.7308C16.5635 17.9229 16.3957 17.9471 16.1086 17.8029C15.8215 17.6588 14.8959 17.3559 13.7976 16.3769C12.9435 15.6155 12.3668 14.6747 12.199 14.387C12.0312 14.0999 12.1808 13.9442 12.325 13.8006C12.454 13.6716 12.6121 13.465 12.7563 13.2972C12.8998 13.1294 12.9477 13.0095 13.0434 12.8181C13.1391 12.626 13.0913 12.4582 13.0192 12.3147C12.9483 12.1705 12.3898 10.7494 12.1342 10.1811Z" fill="white"/>
</svg>
